<?xml version="1.0" standalone="no"?>
<!DOCTYPE svg PUBLIC "-//W3C//DTD SVG 1.1//EN" "http://www.w3.org/Graphics/SVG/1.1/DTD/svg11.dtd" >
<svg xmlns="http://www.w3.org/2000/svg" xmlns:xlink="http://www.w3.org/1999/xlink" version="1.1">
<metadata></metadata>
<defs>
<font id="lemonmilkregular" horiz-adv-x="1112" >
<font-face units-per-em="2048" ascent="1638" descent="-410" />
<missing-glyph horiz-adv-x="500" />
<glyph horiz-adv-x="0" />
<glyph horiz-adv-x="682" />
<glyph unicode=" "  horiz-adv-x="500" />
<glyph unicode="&#x09;" horiz-adv-x="500" />
<glyph unicode="&#xa0;" horiz-adv-x="500" />
<glyph unicode="!" horiz-adv-x="644" d="M81 -15v328h338v-328h-338zM81 1629h338l-42 -1193h-254z" />
<glyph unicode="&#x22;" horiz-adv-x="796" d="M0 1290v322h282v-322l-98 -232h-141l50 232h-93zM363 1290v322h282v-322l-98 -232h-141l50 232h-93z" />
<glyph unicode="#" horiz-adv-x="1377" d="M-15 323l31 241h242l42 323h-242l32 242h242l64 483h242l-64 -483h242l64 483h242l-64 -483h241l-31 -242h-242l-43 -323h242l-32 -241h-241l-43 -323h-242l43 323h-242l-43 -323h-242l43 323h-241zM500 564h241l43 323h-242z" />
<glyph unicode="$" horiz-adv-x="1125" d="M0 484h323q0 -67 47 -114t114 -47q66 0 113.5 47t47.5 114q0 66 -47.5 113.5t-113.5 47.5q-200 0 -342 142t-142 342q0 168 103.5 297.5t259.5 170.5v136h242v-136q156 -41 259 -170.5t103 -297.5h-322q0 66 -47.5 113.5t-113.5 47.5q-67 0 -114 -47.5t-47 -113.5 q0 -67 47 -114.5t114 -47.5q199 0 341 -142t142 -341q0 -169 -103 -299t-259 -170v-135h-242v135q-156 40 -259.5 170t-103.5 299z" />
<glyph unicode="%" horiz-adv-x="1605" d="M0 0l1017 1612h282l-1017 -1612h-282zM0 1290q0 132 94.5 227t228.5 95q132 0 227 -95t95 -227q0 -133 -95 -228t-227 -95q-134 0 -228.5 95t-94.5 228zM242 1290q0 -81 81 -81q80 0 80 81t-80 81q-81 0 -81 -81zM726 363q0 -150 106.5 -256.5t256.5 -106.5 q149 0 255.5 106.5t106.5 256.5q0 149 -106.5 256t-255.5 107q-150 0 -256.5 -107t-106.5 -256zM967 363q0 49 35.5 85t86.5 36q49 0 84.5 -36t35.5 -85q0 -51 -35.5 -86t-84.5 -35q-51 0 -86.5 35t-35.5 86z" />
<glyph unicode="&#x26;" horiz-adv-x="1314" d="M0 484q0 111 46.5 188.5t112.5 130.5q-73 90 -116 172t-43 154q0 199 142 341t342 142q199 0 341 -142t142 -341q0 -166 -98.5 -264t-196.5 -147q37 -36 50 -50l81 -80q87 106 125 196l268 -169l-123 -170q-12 -18 -24.5 -35t-24.5 -34l167 -154l-234 -222 q-78 80 -139 140q-71 -63 -153 -101.5t-181 -38.5q-200 0 -342 142t-142 342zM323 484q0 -67 47 -114t114 -47q29 0 93 46q-57 54 -112 107t-106 105q-36 -40 -36 -97zM323 1129q0 -30 37 -81.5t91 -108.5q6 1 11 2.5t8 2.5q35 10 105 54.5t70 130.5q0 66 -47.5 113.5 t-113.5 47.5q-67 0 -114 -47.5t-47 -113.5z" />
<glyph unicode="'" horiz-adv-x="480" d="M0 1612h323l-41 -523h-242z" />
<glyph unicode="(" horiz-adv-x="707" d="M0 806q0 408 138 708.5t339 339.5l52 -247q-100 0 -171 -235.5t-71 -565.5t71 -565t171 -235l-52 -247q-201 40 -339 339.5t-138 707.5z" />
<glyph unicode=")" horiz-adv-x="707" d="M0 6q99 0 170.5 235t71.5 565t-71.5 565.5t-170.5 235.5l52 247q200 -39 338.5 -339.5t138.5 -708.5t-138.5 -707.5t-338.5 -339.5z" />
<glyph unicode="*" horiz-adv-x="948" d="M0 1078l189 132l-189 132l139 199l140 -98v211h242v-211l139 98l139 -199l-188 -132l188 -132l-139 -198l-139 98v-211h-242v211l-140 -98z" />
<glyph unicode="+" horiz-adv-x="1036" d="M0 484v282h302v403h282v-403h303v-282h-303v-403h-282v403h-302z" />
<glyph unicode="," horiz-adv-x="581" d="M40 0v323h339v-323l-117 -231h-169l59 231h-112z" />
<glyph unicode="-" horiz-adv-x="986" d="M0 484v282h806v-282h-806z" />
<glyph unicode="." horiz-adv-x="581" d="M40 0v339h339v-339h-339z" />
<glyph unicode="/" horiz-adv-x="973" d="M-56 -201l690 2015h282l-690 -2015h-282z" />
<glyph unicode="0" horiz-adv-x="1706" d="M0 806q0 332 236.5 569t569.5 237q332 0 569 -237t237 -569q0 -333 -237 -569.5t-569 -236.5q-333 0 -569.5 236.5t-236.5 569.5zM323 806q0 -200 141.5 -341.5t341.5 -141.5q199 0 341.5 141.5t142.5 341.5q0 199 -142.5 341.5t-341.5 142.5q-200 0 -341.5 -142.5 t-141.5 -341.5z" />
<glyph unicode="1" horiz-adv-x="682" d="M0 1138v336l484 138v-1612h-323v1185z" />
<glyph unicode="2" horiz-adv-x="1137" d="M0 0v162v161l47 146q48 145 276 283q84 51 203 160t119 217q0 66 -47.5 113.5t-113.5 47.5q-67 0 -114 -47.5t-47 -113.5h-323q0 199 142 341t342 142q199 0 341 -142t142 -341q0 -168 -111.5 -313t-267.5 -245q-77 -49 -171 -110.5t-94 -137.5h161h483v-323h-483h-484z " />
<glyph unicode="3" horiz-adv-x="1188" d="M0 446l321 38q14 -69 69 -115t128 -46q83 0 142.5 58.5t59.5 142.5q0 76 -50 116t-125 86q-51 30 -76 46t-58 34q35 20 59.5 37t70.5 44q63 39 121 95t58 107q0 82 -59.5 141.5t-142.5 59.5q-73 0 -128 -46.5t-69 -114.5l-321 38q28 188 175 316.5t343 128.5 q216 0 370 -154t154 -369q0 -78 -26.5 -148t-119.5 -135q96 -47 121 -125.5t25 -156.5q0 -216 -154 -370t-370 -154q-196 0 -343 128.5t-175 317.5z" />
<glyph unicode="4" horiz-adv-x="1479" d="M0 323l539 1289l348 -2l-403 -965h403v645h322v-645h162v-322h-162v-323h-322v323h-887z" />
<glyph unicode="5" horiz-adv-x="1251" d="M0 340l322 103q73 -120 218 -120q104 0 178 70.5t74 170.5q0 99 -74 170.5t-178 71.5q-70 0 -122.5 -11.5t-115.5 -68.5l-302 48l82 838h934v-322h-642l-19 -190q50 18 89 23.5t96 5.5q243 0 416 -166t173 -399t-173 -398.5t-416 -165.5q-181 0 -326.5 95t-213.5 245z " />
<glyph unicode="6" horiz-adv-x="1238" d="M0 564q0 136 63 259q5 9 16.5 32.5t17.5 33.5l417 723h370l-278 -485q218 -16 370.5 -178.5t152.5 -384.5q0 -233 -166 -398.5t-399 -165.5t-398.5 165.5t-165.5 398.5zM323 564q0 -100 70.5 -170.5t170.5 -70.5t171 70.5t71 170.5t-71 171t-171 71t-170.5 -71 t-70.5 -171z" />
<glyph unicode="7" horiz-adv-x="1213" d="M0 1129v483h1129l-509 -1612h-338l403 1296h-362v-167h-323z" />
<glyph unicode="8" horiz-adv-x="1175" d="M0 524q0 225 167 383q-86 116 -86 262q0 183 130 313t313 130t313 -130t130 -313q0 -146 -86 -262q167 -156 167 -383q0 -216 -154 -370t-370 -154t-370 154t-154 370zM323 524q0 -84 58.5 -142.5t142.5 -58.5q83 0 142.5 58.5t59.5 142.5q0 83 -59.5 142.5t-142.5 59.5 q-84 0 -142.5 -59.5t-58.5 -142.5zM403 1169q0 -50 35.5 -85.5t85.5 -35.5t85.5 35.5t35.5 85.5q0 49 -35.5 85t-85.5 36t-85.5 -36t-35.5 -85z" />
<glyph unicode="9" horiz-adv-x="1238" d="M0 1048q0 232 165.5 398t398.5 166t399 -166t166 -398q0 -137 -63 -258q-6 -11 -17 -34t-17 -32l-417 -724h-370l278 485q-219 16 -371 178.5t-152 384.5zM323 1048q0 -100 70.5 -171t170.5 -71t171 71t71 171q0 99 -71 170.5t-171 71.5t-170.5 -71.5t-70.5 -170.5z" />
<glyph unicode=":" horiz-adv-x="581" d="M40 0v323h323v-323h-323zM40 967v323h323v-323h-323z" />
<glyph unicode=";" horiz-adv-x="581" d="M40 0v323h323v-323l-112 -231h-161l56 231h-106zM40 967v323h323v-323h-323z" />
<glyph unicode="&#x3c;" horiz-adv-x="1327" d="M-23 647l1208 647v-316l-618 -331l618 -331v-316z" />
<glyph unicode="=" horiz-adv-x="1036" d="M0 323v282h806v-282h-806zM0 806v283h806v-283h-806z" />
<glyph unicode="&#x3e;" horiz-adv-x="1327" d="M0 0v316l619 331l-619 331v316l1209 -647z" />
<glyph unicode="?" d="M0 1111q0 201 143.5 344.5t344.5 143.5t344.5 -143.5t143.5 -344.5q0 -94 -43.5 -157t-100 -119t-110 -117.5t-72.5 -151.5q-8 -35 -4 -65.5t4 -80.5h-325v37v122q0 24 38 122t133 193q48 47 101 110t53 107q0 67 -48 115t-114 48q-68 0 -115.5 -48t-47.5 -115h-325z M325 -26v324h325v-324h-325z" />
<glyph unicode="@" horiz-adv-x="2085" d="M0 806q0 415 296 711.5t712 296.5q415 0 711.5 -296.5t296.5 -711.5q0 -151 -59.5 -297t-170.5 -243q-127 -113 -328.5 -96.5t-280.5 253.5q-36 -14 -83 -29.5t-86 -15.5q-177 0 -302.5 125.5t-125.5 302.5t125.5 303t302.5 126q72 0 152 -28v28h268v-627 q34 -177 104.5 -157t115.5 113q29 59 47 116t18 126q0 291 -207 498.5t-498 207.5t-498.5 -207.5t-207.5 -498.5t207.5 -498t498.5 -207q150 0 284 60l144 -265q-204 -97 -428 -97q-416 0 -712 295.5t-296 711.5zM857 806q0 -63 44 -107t107 -44q62 0 106.5 44t44.5 107 q0 62 -44.5 106.5t-106.5 44.5q-63 0 -107 -44.5t-44 -106.5z" />
<glyph unicode="A" horiz-adv-x="1491" d="M-23 0l690 1537l34 75l35 -76l691 -1536h-68h-208h-14h-55l-103 231l-5 11h-544l-5 -12l-104 -230h-55h-13h-208h-68zM575 564h253l-126 282z" />
<glyph unicode="B" horiz-adv-x="1251" d="M0 0v564v242v323v80v403h403q166 0 284.5 -118.5t118.5 -284.5q0 -65 -20 -126q150 -65 246.5 -205t96.5 -314q0 -233 -166 -398.5t-399 -165.5h-564zM323 323h241q100 0 171 70.5t71 170.5t-71 171t-171 71h-161h-80v-242v-241zM323 1129h80q81 0 81 80q0 81 -81 81h-80 v-81v-80z" />
<glyph unicode="C" horiz-adv-x="1491" d="M0 806q0 332 236.5 569t569.5 237q166 0 312.5 -63.5t257.5 -172.5l-228 -228q-144 142 -342 142q-200 0 -341.5 -142.5t-141.5 -341.5q0 -200 141.5 -341.5t341.5 -141.5t342 142l228 -228q-111 -110 -257.5 -173.5t-312.5 -63.5q-333 0 -569.5 236.5t-236.5 569.5z" />
<glyph unicode="D" horiz-adv-x="1238" d="M0 0v1612h323q332 0 569 -237t237 -569q0 -333 -237 -569.5t-569 -236.5h-323zM323 323q199 0 341 141.5t142 341.5q0 199 -142 341.5t-341 142.5v-967z" />
<glyph unicode="E" d="M0 0v645v322v645h967v-322h-644v-323h483v-322h-483v-322h644v-323h-644h-323z" />
<glyph unicode="F" d="M0 0v645v322v645h967v-322h-644v-323h483v-322h-483v-322v-323h-323z" />
<glyph unicode="G" horiz-adv-x="1706" d="M0 806q0 332 236.5 569t569.5 237q166 0 312.5 -63.5t257.5 -172.5l-228 -228q-144 142 -342 142q-200 0 -341.5 -142.5t-141.5 -341.5q0 -200 141.5 -341.5t341.5 -141.5q157 0 281 90.5t175 231.5h-456v322h456h187h147q16 -76 16 -161q0 -333 -237 -569.5t-569 -236.5 q-333 0 -569.5 236.5t-236.5 569.5z" />
<glyph unicode="H" horiz-adv-x="1276" d="M0 0v1612h323v-645h483v645h323v-1612h-323v645h-483v-645h-323z" />
<glyph unicode="I" horiz-adv-x="493" d="M0 0v1612h323v-1612h-323z" />
<glyph unicode="J" horiz-adv-x="859" d="M0 3v325q33 -5 61 -5q132 0 227.5 94.5t95.5 227.5v33v289v645h322v-645v-322q0 -267 -189.5 -456t-455.5 -189q-31 0 -61 3z" />
<glyph unicode="K" horiz-adv-x="1238" d="M0 0v1612h323v-612l355 612h373l-476 -819l553 -793h-393l-412 592v-592h-323z" />
<glyph unicode="L" d="M0 0v1612h323v-1289h644v-323h-967z" />
<glyph unicode="M" horiz-adv-x="1719" d="M0 0v1612l786 -1048l786 1048v-1612h-323v645l-463 -619l-463 619v-645h-323z" />
<glyph unicode="N" horiz-adv-x="1466" d="M0 0v1612l967 -881v881h323v-1612l-967 882v-882h-323z" />
<glyph unicode="O" horiz-adv-x="1706" d="M0 806q0 332 236.5 569t569.5 237q332 0 569 -237t237 -569q0 -333 -237 -569.5t-569 -236.5q-333 0 -569.5 236.5t-236.5 569.5zM323 806q0 -200 141.5 -341.5t341.5 -141.5q199 0 341.5 141.5t142.5 341.5q0 199 -142.5 341.5t-341.5 142.5q-200 0 -341.5 -142.5 t-141.5 -341.5z" />
<glyph unicode="P" horiz-adv-x="1251" d="M0 0v484v564v564h323h241q233 0 399 -166t166 -398q0 -233 -166 -398.5t-399 -165.5h-241v-484h-323zM323 806h241q100 0 171 71t71 171q0 99 -71 170.5t-171 71.5h-241v-242v-242z" />
<glyph unicode="Q" horiz-adv-x="1706" d="M0 806q0 332 236.5 569t569.5 237q332 0 569 -237t237 -569q0 -243 -134 -444l137 -136l-228 -227l-137 135q-203 -134 -444 -134q-333 0 -569.5 236.5t-236.5 569.5zM323 806q0 -200 141.5 -341.5t341.5 -141.5q110 0 209 47l-210 209l228 228l210 -209q47 98 47 208 q0 199 -142.5 341.5t-341.5 142.5q-200 0 -341.5 -142.5t-141.5 -341.5z" />
<glyph unicode="R" horiz-adv-x="1276" d="M0 0v484v564v564h323h241q233 0 399 -166t166 -398q0 -180 -102.5 -323.5t-261.5 -203.5l364 -521h-394l-412 590v-590h-323zM323 806h241q100 0 171 71t71 171q0 99 -71 170.5t-171 71.5h-241v-242v-242z" />
<glyph unicode="S" horiz-adv-x="1099" d="M0 484h323q0 -67 47 -114t114 -47q66 0 113.5 47t47.5 114q0 102 -81.5 132t-110.5 41q-15 5 -87.5 30t-154 79t-146.5 142.5t-65 220.5q0 199 142 341t342 142q199 0 341 -142t142 -341h-322q0 66 -47.5 113.5t-113.5 47.5q-67 0 -114 -47.5t-47 -113.5 q0 -86 69.5 -130.5t105.5 -54.5q17 -6 92.5 -28t159 -73t150.5 -137.5t67 -221.5q0 -200 -142 -342t-341 -142q-200 0 -342 142t-142 342z" />
<glyph unicode="T" horiz-adv-x="1289" d="M0 1290v322h403h323h403v-322h-403v-1290h-323v1290h-403z" />
<glyph unicode="U" horiz-adv-x="1441" d="M0 645v322v645h323v-645v-289v-33q0 -133 94.5 -227.5t227.5 -94.5q132 0 227 94.5t95 227.5v33v289v645h323v-645v-322q0 -267 -189.5 -456t-455.5 -189q-267 0 -456 189t-189 456z" />
<glyph unicode="V" horiz-adv-x="1491" d="M-23 1612h64h212h13h52l382 -849l382 849h55h13h209h68l-726 -1612l-34 76z" />
<glyph unicode="W" horiz-adv-x="1921" d="M-31 1612h347l297 -730l297 730l297 -730l296 730h348l-644 -1612l-300 749l-294 -749z" />
<glyph unicode="X" horiz-adv-x="1352" d="M-15 1l458 806l-458 805h370l274 -480l274 480h371l-460 -805l460 -807h-371l-274 481l-274 -481z" />
<glyph unicode="Y" horiz-adv-x="1352" d="M-15 1612h366l278 -511l278 511h367l-484 -889v-723h-322v723z" />
<glyph unicode="Z" horiz-adv-x="1289" d="M0 0l617 1290h-617v322h1129l-617 -1289h617v-323h-1129z" />
<glyph unicode="\" horiz-adv-x="973" d="M-56 1814h282l690 -2015h-282z" />
<glyph unicode="^" horiz-adv-x="998" d="M-15 839l451 773l453 -773h-280l-173 294l-172 -294h-279z" />
<glyph unicode="_" horiz-adv-x="1542" d="M-15 -120v241h1450v-241h-1450z" />
<glyph unicode="`" horiz-adv-x="480" d="M0 1612h323l-41 -523h-242z" />
<glyph unicode="a" horiz-adv-x="1491" d="M-23 0l690 1537l34 75l35 -76l691 -1536h-68h-208h-14h-55l-103 231l-5 11h-544l-5 -12l-104 -230h-55h-13h-208h-68zM575 564h253l-126 282z" />
<glyph unicode="b" horiz-adv-x="1251" d="M0 0v564v242v323v80v403h403q166 0 284.5 -118.5t118.5 -284.5q0 -65 -20 -126q150 -65 246.5 -205t96.5 -314q0 -233 -166 -398.5t-399 -165.5h-564zM323 323h241q100 0 171 70.5t71 170.5t-71 171t-171 71h-161h-80v-242v-241zM323 1129h80q81 0 81 80q0 81 -81 81h-80 v-81v-80z" />
<glyph unicode="c" horiz-adv-x="1491" d="M0 806q0 332 236.5 569t569.5 237q166 0 312.5 -63.5t257.5 -172.5l-228 -228q-144 142 -342 142q-200 0 -341.5 -142.5t-141.5 -341.5q0 -200 141.5 -341.5t341.5 -141.5t342 142l228 -228q-111 -110 -257.5 -173.5t-312.5 -63.5q-333 0 -569.5 236.5t-236.5 569.5z" />
<glyph unicode="d" horiz-adv-x="1238" d="M0 0v1612h323q332 0 569 -237t237 -569q0 -333 -237 -569.5t-569 -236.5h-323zM323 323q199 0 341 141.5t142 341.5q0 199 -142 341.5t-341 142.5v-967z" />
<glyph unicode="e" d="M0 0v645v322v645h967v-322h-644v-323h483v-322h-483v-322h644v-323h-644h-323z" />
<glyph unicode="f" d="M0 0v645v322v645h967v-322h-644v-323h483v-322h-483v-322v-323h-323z" />
<glyph unicode="g" horiz-adv-x="1706" d="M0 806q0 332 236.5 569t569.5 237q166 0 312.5 -63.5t257.5 -172.5l-228 -228q-144 142 -342 142q-200 0 -341.5 -142.5t-141.5 -341.5q0 -200 141.5 -341.5t341.5 -141.5q157 0 281 90.5t175 231.5h-456v322h456h187h147q16 -76 16 -161q0 -333 -237 -569.5t-569 -236.5 q-333 0 -569.5 236.5t-236.5 569.5z" />
<glyph unicode="h" horiz-adv-x="1276" d="M0 0v1612h323v-645h483v645h323v-1612h-323v645h-483v-645h-323z" />
<glyph unicode="i" horiz-adv-x="493" d="M0 0v1612h323v-1612h-323z" />
<glyph unicode="j" horiz-adv-x="859" d="M0 3v325q33 -5 61 -5q132 0 227.5 94.5t95.5 227.5v33v289v645h322v-645v-322q0 -267 -189.5 -456t-455.5 -189q-31 0 -61 3z" />
<glyph unicode="k" horiz-adv-x="1238" d="M0 0v1612h323v-612l355 612h373l-476 -819l553 -793h-393l-412 592v-592h-323z" />
<glyph unicode="l" d="M0 0v1612h323v-1289h644v-323h-967z" />
<glyph unicode="m" horiz-adv-x="1719" d="M0 0v1612l786 -1048l786 1048v-1612h-323v645l-463 -619l-463 619v-645h-323z" />
<glyph unicode="n" horiz-adv-x="1466" d="M0 0v1612l967 -881v881h323v-1612l-967 882v-882h-323z" />
<glyph unicode="o" horiz-adv-x="1706" d="M0 806q0 332 236.5 569t569.5 237q332 0 569 -237t237 -569q0 -333 -237 -569.5t-569 -236.5q-333 0 -569.5 236.5t-236.5 569.5zM323 806q0 -200 141.5 -341.5t341.5 -141.5q199 0 341.5 141.5t142.5 341.5q0 199 -142.5 341.5t-341.5 142.5q-200 0 -341.5 -142.5 t-141.5 -341.5z" />
<glyph unicode="p" horiz-adv-x="1251" d="M0 0v484v564v564h323h241q233 0 399 -166t166 -398q0 -233 -166 -398.5t-399 -165.5h-241v-484h-323zM323 806h241q100 0 171 71t71 171q0 99 -71 170.5t-171 71.5h-241v-242v-242z" />
<glyph unicode="q" horiz-adv-x="1706" d="M0 806q0 332 236.5 569t569.5 237q332 0 569 -237t237 -569q0 -243 -134 -444l137 -136l-228 -227l-137 135q-203 -134 -444 -134q-333 0 -569.5 236.5t-236.5 569.5zM323 806q0 -200 141.5 -341.5t341.5 -141.5q110 0 209 47l-210 209l228 228l210 -209q47 98 47 208 q0 199 -142.5 341.5t-341.5 142.5q-200 0 -341.5 -142.5t-141.5 -341.5z" />
<glyph unicode="r" horiz-adv-x="1276" d="M0 0v484v564v564h323h241q233 0 399 -166t166 -398q0 -180 -102.5 -323.5t-261.5 -203.5l364 -521h-394l-412 590v-590h-323zM323 806h241q100 0 171 71t71 171q0 99 -71 170.5t-171 71.5h-241v-242v-242z" />
<glyph unicode="s" horiz-adv-x="1099" d="M0 484h323q0 -67 47 -114t114 -47q66 0 113.5 47t47.5 114q0 102 -81.5 132t-110.5 41q-15 5 -87.5 30t-154 79t-146.5 142.5t-65 220.5q0 199 142 341t342 142q199 0 341 -142t142 -341h-322q0 66 -47.5 113.5t-113.5 47.5q-67 0 -114 -47.5t-47 -113.5 q0 -86 69.5 -130.5t105.5 -54.5q17 -6 92.5 -28t159 -73t150.5 -137.5t67 -221.5q0 -200 -142 -342t-341 -142q-200 0 -342 142t-142 342z" />
<glyph unicode="t" horiz-adv-x="1289" d="M0 1290v322h403h323h403v-322h-403v-1290h-323v1290h-403z" />
<glyph unicode="u" horiz-adv-x="1441" d="M0 645v322v645h323v-645v-289v-33q0 -133 94.5 -227.5t227.5 -94.5q132 0 227 94.5t95 227.5v33v289v645h323v-645v-322q0 -267 -189.5 -456t-455.5 -189q-267 0 -456 189t-189 456z" />
<glyph unicode="v" horiz-adv-x="1491" d="M-23 1612h64h212h13h52l382 -849l382 849h55h13h209h68l-726 -1612l-34 76z" />
<glyph unicode="w" horiz-adv-x="1921" d="M-31 1612h347l297 -730l297 730l297 -730l296 730h348l-644 -1612l-300 749l-294 -749z" />
<glyph unicode="x" horiz-adv-x="1352" d="M-15 1l458 806l-458 805h370l274 -480l274 480h371l-460 -805l460 -807h-371l-274 481l-274 -481z" />
<glyph unicode="y" horiz-adv-x="1352" d="M-15 1612h366l278 -511l278 511h367l-484 -889v-723h-322v723z" />
<glyph unicode="z" horiz-adv-x="1289" d="M0 0l617 1290h-617v322h1129l-617 -1289h617v-323h-1129z" />
<glyph unicode="|" horiz-adv-x="695" d="M121 -201v2015h242v-2015h-242z" />
<glyph unicode="&#xad;" horiz-adv-x="986" d="M0 484v282h806v-282h-806z" />
<glyph unicode="&#x2000;" horiz-adv-x="927" />
<glyph unicode="&#x2001;" horiz-adv-x="1854" />
<glyph unicode="&#x2002;" horiz-adv-x="927" />
<glyph unicode="&#x2003;" horiz-adv-x="1854" />
<glyph unicode="&#x2004;" horiz-adv-x="618" />
<glyph unicode="&#x2005;" horiz-adv-x="463" />
<glyph unicode="&#x2006;" horiz-adv-x="309" />
<glyph unicode="&#x2007;" horiz-adv-x="309" />
<glyph unicode="&#x2008;" horiz-adv-x="231" />
<glyph unicode="&#x2009;" horiz-adv-x="370" />
<glyph unicode="&#x200a;" horiz-adv-x="103" />
<glyph unicode="&#x2010;" horiz-adv-x="986" d="M0 484v282h806v-282h-806z" />
<glyph unicode="&#x2011;" horiz-adv-x="986" d="M0 484v282h806v-282h-806z" />
<glyph unicode="&#x2012;" horiz-adv-x="986" d="M0 484v282h806v-282h-806z" />
<glyph unicode="&#x2013;" horiz-adv-x="1204" d="M0 484v282h1024v-282h-1024z" />
<glyph unicode="&#x2014;" horiz-adv-x="2228" d="M0 484v282h2048v-282h-2048z" />
<glyph unicode="&#x2018;" horiz-adv-x="467" d="M0 1612h323l-41 -523h-242z" />
<glyph unicode="&#x2019;" horiz-adv-x="467" d="M0 1612h323l-41 -523h-242z" />
<glyph unicode="&#x201c;" horiz-adv-x="796" d="M0 1058v322l98 232h141l-50 -232h93v-322h-282zM363 1058v322l98 232h140l-49 -232h93v-322h-282z" />
<glyph unicode="&#x201d;" horiz-adv-x="796" d="M0 1290v322h282v-322l-98 -232h-141l50 232h-93zM363 1290v322h282v-322l-98 -232h-141l50 232h-93z" />
<glyph unicode="&#x201e;" horiz-adv-x="796" d="M0 1058v322l98 232h141l-50 -232h93v-322h-282zM363 1058v322l98 232h140l-49 -232h93v-322h-282z" />
<glyph unicode="&#x202f;" horiz-adv-x="370" />
<glyph unicode="&#x205f;" horiz-adv-x="463" />
<glyph unicode="&#x25fc;" horiz-adv-x="1610" d="M0 0v1610h1610v-1610h-1610z" />
</font>
</defs>
</svg>
