<?xml version="1.0" encoding="utf-8"?>
<!-- Generator: Adobe Illustrator 18.1.1, SVG Export Plug-In . SVG Version: 6.00 Build 0)  -->
<!DOCTYPE svg PUBLIC "-//W3C//DTD SVG 1.1//EN" "http://www.w3.org/Graphics/SVG/1.1/DTD/svg11.dtd">
<svg version="1.1" id="Layer_1" xmlns="http://www.w3.org/2000/svg" xmlns:xlink="http://www.w3.org/1999/xlink" x="0px" y="0px"
	 viewBox="0 0 190.1 190.1" enable-background="new 0 0 190.1 190.1" xml:space="preserve">
<g>
	<rect x="0" y="0" fill="#424143" width="190.1" height="190.1"/>
</g>
<g>
	<path fill="#FFFFFF" d="M41.8,171.6c-0.9,0.6-2.4,1-3.8,1c-3.8,0-5.4-2.6-5.4-6.8c0-3.8,1.9-6.7,5.7-6.7c1.3,0,2.6,0.4,3.5,1v3.5
		l-1.7-0.2l-0.2-1.8c0-0.2-0.1-0.3-0.2-0.3c-0.3-0.1-0.9-0.2-1.4-0.2c-2,0-3.2,1.5-3.2,4.6c0,3.2,1.2,4.7,3.1,4.7
		c0.5,0,1.1-0.1,1.5-0.2c0.2-0.1,0.2-0.1,0.3-0.4l0.2-1.7h1.6V171.6z"/>
	<path fill="#FFFFFF" d="M42.8,167.8c0-3,1.3-4.9,4.2-4.9c2.8,0,4,2,4,4.7c0,3.1-1.3,5-4.2,5C43.9,172.6,42.8,170.6,42.8,167.8z
		 M48.5,167.7c0-2.1-0.6-2.9-1.6-2.9c-1,0-1.7,0.7-1.7,2.9c0,2.2,0.6,3,1.6,3C47.9,170.7,48.5,169.9,48.5,167.7z"/>
	<path fill="#FFFFFF" d="M57.3,172.4v-5.8c0-0.9,0-1.6-0.8-1.6c-0.6,0-1.3,0.4-1.6,0.7v4.8c0,0.3,0,0.3,0.2,0.4l0.7,0.1v1.4h-4.2
		V171l0.7-0.1c0.2,0,0.2-0.1,0.2-0.4v-5.3c0-0.2,0-0.3-0.2-0.4l-0.8-0.3l0.2-1.5h2.7l0.1,0.9l0.1,0c0.8-0.7,1.7-1.2,2.7-1.2
		c1.7,0,2.3,1.1,2.3,3.1v4.6c0,0.3,0,0.3,0.2,0.4l0.8,0.1v1.4H57.3z"/>
	<path fill="#FFFFFF" d="M67.1,171.9c-0.7,0.4-1.6,0.7-2.5,0.7c-1.8,0-2.5-0.9-2.5-2.9V165c0-0.1,0-0.2-0.1-0.2h-1.1v-1.6
		c1.4-0.2,1.9-1,2.1-2.9h1.5v2.6c0,0.1,0,0.2,0.1,0.2h2.2v1.8h-2.3v4.3c0,1.1,0.2,1.5,1,1.5c0.4,0,0.9-0.1,1.2-0.3L67.1,171.9z"/>
	<path fill="#FFFFFF" d="M74.5,171.7c-1,0.5-2,0.9-3.2,0.9c-3,0-4-2.2-4-5c0-3.3,1.7-4.8,3.8-4.8c2,0,3.4,1.2,3.4,4.4
		c0,0.2,0,0.8,0,1.2h-4.7c0.1,1.3,0.6,2.1,1.8,2.1c0.6,0,1.2-0.2,2.3-0.6L74.5,171.7z M72.3,166.7c0-1.5-0.5-1.9-1.2-1.9
		c-0.7,0-1.2,0.4-1.3,1.9H72.3z"/>
	<path fill="#FFFFFF" d="M81.1,172.4v-5.8c0-0.9,0-1.6-0.8-1.6c-0.6,0-1.3,0.4-1.6,0.7v4.8c0,0.3,0,0.3,0.2,0.4l0.7,0.1v1.4h-4.2
		V171l0.7-0.1c0.2,0,0.2-0.1,0.2-0.4v-5.3c0-0.2,0-0.3-0.2-0.4l-0.8-0.3l0.2-1.5h2.7l0.1,0.9l0.1,0c0.8-0.7,1.7-1.2,2.7-1.2
		c1.7,0,2.3,1.1,2.3,3.1v4.6c0,0.3,0,0.3,0.2,0.4l0.8,0.1v1.4H81.1z"/>
	<path fill="#FFFFFF" d="M90.9,171.9c-0.7,0.4-1.6,0.7-2.5,0.7c-1.8,0-2.5-0.9-2.5-2.9V165c0-0.1,0-0.2-0.1-0.2h-1.1v-1.6
		c1.4-0.2,1.9-1,2.1-2.9h1.5v2.6c0,0.1,0,0.2,0.1,0.2h2.2v1.8h-2.3v4.3c0,1.1,0.2,1.5,1,1.5c0.4,0,0.9-0.1,1.2-0.3L90.9,171.9z"/>
	<path fill="#FFFFFF" d="M100.8,163.2l-0.2-1.5c0-0.2-0.1-0.3-0.2-0.3c-0.2-0.1-0.6-0.2-1.1-0.2c-1.2,0-1.7,0.6-1.7,1.5
		c0,1.2,1,1.5,2.2,1.9c1.5,0.5,3.1,1.2,3.1,3.9c0,3-2,4.1-4.3,4.1c-1.4,0-2.9-0.4-3.5-0.7v-3.5h1.7l0.3,1.7c0,0.2,0.1,0.3,0.3,0.3
		c0.2,0.1,0.7,0.2,1.3,0.2c1.2,0,1.9-0.6,1.9-1.7c0-1.2-0.9-1.5-1.9-1.9c-1.5-0.5-3.4-1-3.4-3.9c0-2.8,1.8-4.1,4.1-4.1
		c1.3,0,2.5,0.4,3.2,0.7v3.5L100.8,163.2z"/>
	<path fill="#FFFFFF" d="M109.9,171.9c-0.7,0.4-1.6,0.7-2.5,0.7c-1.8,0-2.5-0.9-2.5-2.9V165c0-0.1,0-0.2-0.1-0.2h-1.1v-1.6
		c1.4-0.2,1.9-1,2.1-2.9h1.5v2.6c0,0.1,0,0.2,0.1,0.2h2.2v1.8h-2.3v4.3c0,1.1,0.2,1.5,1,1.5c0.4,0,0.9-0.1,1.2-0.3L109.9,171.9z"/>
	<path fill="#FFFFFF" d="M110.6,172.4v-1.5l0.7-0.1c0.2,0,0.2-0.1,0.2-0.4v-5.3c0-0.2,0-0.3-0.2-0.4l-0.8-0.3l0.2-1.5h2.7l0.2,1.4
		h0.1c0.5-0.9,1.2-1.6,2.2-1.6c0.4,0,1.1,0.1,1.3,0.2v3.3l-1.8-0.1l-0.2-1c0-0.2-0.1-0.2-0.2-0.2c-0.4,0-0.9,0.4-1.1,0.6v4.8
		c0,0.3,0,0.3,0.2,0.4l1.5,0.1v1.4H110.6z"/>
	<path fill="#FFFFFF" d="M122.7,172.4l-0.2-1l-0.1,0c-0.6,0.7-1.4,1.2-2.6,1.2c-1.9,0-2.2-1.5-2.2-2.7c0-1.8,1-2.6,2.9-2.8l1.8-0.1
		v-1c0-0.8-0.1-1.4-1-1.4c-0.7,0-1.1,0.1-1.1,1.2l-2.2-0.2c0-2.4,1.9-2.8,3.3-2.8c2.3,0,3.3,0.7,3.3,3.3v4.4c0,0.3,0,0.3,0.2,0.4
		l0.7,0.1v1.4H122.7z M122.2,168.5l-1,0.1c-0.9,0.1-1.2,0.3-1.2,1.1c0,0.7,0.4,1,0.9,1c0.5,0,1-0.3,1.4-0.6V168.5z"/>
	<path fill="#FFFFFF" d="M131.9,171.9c-0.7,0.4-1.6,0.7-2.5,0.7c-1.8,0-2.5-0.9-2.5-2.9V165c0-0.1,0-0.2-0.1-0.2h-1.1v-1.6
		c1.4-0.2,1.9-1,2.1-2.9h1.5v2.6c0,0.1,0,0.2,0.1,0.2h2.2v1.8h-2.3v4.3c0,1.1,0.2,1.5,1,1.5c0.4,0,0.9-0.1,1.2-0.3L131.9,171.9z"/>
	<path fill="#FFFFFF" d="M139.3,171.7c-1,0.5-2,0.9-3.2,0.9c-3,0-4-2.2-4-5c0-3.3,1.7-4.8,3.8-4.8c2,0,3.4,1.2,3.4,4.4
		c0,0.2,0,0.8,0,1.2h-4.7c0.1,1.3,0.6,2.1,1.8,2.1c0.6,0,1.2-0.2,2.3-0.6L139.3,171.7z M137,166.7c0-1.5-0.5-1.9-1.2-1.9
		c-0.7,0-1.2,0.4-1.3,1.9H137z"/>
	<path fill="#FFFFFF" d="M146.9,164.7c0.3,0.4,0.6,1,0.6,1.8c0,2-1.3,3.2-3.3,3.2c-0.5,0-0.9-0.1-1.2-0.2l-0.5,1l1.5,0.1
		c2.7,0.2,4.2,0.3,4.2,2.7c0,2.1-1.6,3.2-4.2,3.2c-2.8,0-3.8-0.8-3.8-2.2c0-0.8,0.3-1.2,0.8-1.8c-0.5-0.3-0.7-0.7-0.7-1.2
		c0-0.4,0.2-0.8,0.4-1.1c0.3-0.3,0.6-0.7,1-1.1c-0.8-0.4-1.3-1.4-1.3-2.7c0-2.1,1.2-3.5,3.5-3.5c0.7,0,1.1,0.1,1.4,0.2h3v1.5
		L146.9,164.7z M142.3,172.9c-0.2,0.3-0.4,0.6-0.4,1c0,0.7,0.8,0.9,1.9,0.9c0.9,0,2.1-0.1,2.1-1c0-0.6-0.6-0.6-1.3-0.7L142.3,172.9z
		 M144,164.6c-0.8,0-1.5,0.5-1.5,1.7c0,0.9,0.4,1.5,1.4,1.5c0.9,0,1.4-0.6,1.4-1.5C145.4,165.2,144.9,164.6,144,164.6z"/>
	<path fill="#FFFFFF" d="M150.2,176.2v-1.5l1.2-0.2c0.2,0,0.3-0.1,0.4-0.4l0.7-1.7l-2.9-7.5c-0.1-0.2-0.1-0.3-0.3-0.3l-0.6-0.2
		l0.2-1.5h4.1v1.5l-1,0.1l1.7,4.8h0.1l1.6-4.8l-1-0.1l0.2-1.5h3.4v1.5l-0.5,0.1c-0.2,0-0.3,0.1-0.4,0.3l-3.4,9.7l1.6,0.2v1.4H150.2z
		"/>
</g>
<g>
	<g>
		<rect x="85.9" y="70.1" fill="#FFFFFF" width="18.8" height="18.8"/>
	</g>
	<g>
		<rect x="119.3" y="47.3" fill="#FFFFFF" width="18.8" height="18.8"/>
	</g>
	<g>
		<rect x="144.8" y="70.6" fill="#FFFFFF" width="18.8" height="18.8"/>
	</g>
	<g>
		<rect x="122.2" y="92.5" fill="#FFFFFF" width="18.8" height="18.8"/>
	</g>
	<g>
		
			<rect x="110.8" y="48.6" transform="matrix(0.6785 0.7346 -0.7346 0.6785 83.2111 -62.77)" fill="#FFFFFF" width="5" height="30.2"/>
	</g>
	<g>
		
			<rect x="91.1" y="88.7" transform="matrix(0.7983 0.6022 -0.6022 0.7983 77.023 -47.6164)" fill="#FFFFFF" width="37.1" height="5"/>
	</g>
	<g>
		<rect x="104.7" y="77" fill="#FFFFFF" width="41.1" height="5"/>
	</g>
	<g>
		<rect x="52" y="48.1" fill="#FFFFFF" width="18.8" height="18.8"/>
	</g>
	<g>
		<rect x="85.4" y="111.1" fill="#FFFFFF" width="18.8" height="18.8"/>
	</g>
	<g>
		
			<rect x="85.4" y="30.4" transform="matrix(-5.224188e-04 -1 1 -5.224188e-04 55.1018 134.5827)" fill="#FFFFFF" width="18.8" height="18.8"/>
	</g>
	<g>
		<rect x="26.6" y="71.4" fill="#FFFFFF" width="18.8" height="18.8"/>
	</g>
	<g>
		<rect x="49.1" y="93.2" fill="#FFFFFF" width="18.8" height="18.8"/>
	</g>
	<g>
		
			<rect x="61.7" y="61.9" transform="matrix(0.7346 0.6785 -0.6785 0.7346 64.09 -35.0099)" fill="#FFFFFF" width="30.2" height="5"/>
	</g>
	<g>
		
			<rect x="78" y="73.4" transform="matrix(0.6021 0.7984 -0.7984 0.6021 105.4355 -27.701)" fill="#FFFFFF" width="5" height="37.1"/>
	</g>
	<g>
		<rect x="44.4" y="77.8" fill="#FFFFFF" width="50.9" height="5"/>
	</g>
	<g>
		<rect x="92.3" y="88.1" fill="#FFFFFF" width="5" height="23.4"/>
	</g>
	<g>
		<rect x="92.3" y="49" fill="#FFFFFF" width="5" height="23.4"/>
	</g>
</g>
</svg>
