<?xml version="1.0" encoding="utf-8"?>
<!-- Generator: Adobe Illustrator 18.1.1, SVG Export Plug-In . SVG Version: 6.00 Build 0)  -->
<!DOCTYPE svg PUBLIC "-//W3C//DTD SVG 1.1//EN" "http://www.w3.org/Graphics/SVG/1.1/DTD/svg11.dtd">
<svg version="1.1" id="Layer_1" xmlns="http://www.w3.org/2000/svg" xmlns:xlink="http://www.w3.org/1999/xlink" x="0px" y="0px"
	 viewBox="0 0 190.1 190.1" enable-background="new 0 0 190.1 190.1" xml:space="preserve">
<g>
	<rect x="0" y="0" fill="#424143" width="190.1" height="190.1"/>
</g>
<g>
	<path fill="#FFFFFF" d="M21.4,171.8v-1.4l1-0.1c0.2,0,0.2-0.1,0.2-0.4v-3.8h-4.2v3.8c0,0.3,0,0.3,0.2,0.4l1,0.1v1.4h-4.9v-1.4
		l1-0.1c0.2,0,0.2-0.1,0.2-0.4v-9.2c0-0.3,0-0.3-0.2-0.4l-1-0.1v-1.4h4.9v1.4l-1,0.1c-0.2,0-0.2,0.1-0.2,0.3v3.4h4.2v-3.4
		c0-0.3,0-0.3-0.2-0.4l-1-0.1v-1.4h4.9v1.4l-1,0.1c-0.2,0-0.2,0.1-0.2,0.3v9.2c0,0.3,0,0.3,0.2,0.4l1,0.1v1.4H21.4z"/>
	<path fill="#FFFFFF" d="M32.4,171.8l-0.2-1l-0.1,0c-0.6,0.7-1.4,1.2-2.6,1.2c-1.9,0-2.2-1.5-2.2-2.7c0-1.8,1-2.6,2.9-2.8l1.8-0.1
		v-1c0-0.8-0.1-1.4-1-1.4c-0.7,0-1.1,0.1-1.1,1.2l-2.2-0.2c0-2.4,1.9-2.8,3.3-2.8c2.3,0,3.3,0.7,3.3,3.3v4.4c0,0.3,0,0.3,0.2,0.4
		l0.7,0.1v1.4H32.4z M31.9,167.9l-1,0.1c-0.9,0.1-1.2,0.3-1.2,1.1c0,0.7,0.4,1,0.9,1c0.5,0,1-0.3,1.4-0.6V167.9z"/>
	<path fill="#FFFFFF" d="M35.7,171.8v-1.5l0.7-0.1c0.2,0,0.2-0.1,0.2-0.4v-5.3c0-0.2,0-0.3-0.2-0.4l-0.8-0.3l0.2-1.5h2.7l0.2,1.4
		h0.1c0.5-0.9,1.2-1.6,2.2-1.6c0.4,0,1.1,0.1,1.3,0.2v3.3l-1.8-0.1l-0.2-1c0-0.2-0.1-0.2-0.2-0.2c-0.4,0-0.9,0.4-1.1,0.6v4.8
		c0,0.3,0,0.3,0.2,0.4l1.5,0.1v1.4H35.7z"/>
	<path fill="#FFFFFF" d="M48.8,171.8l-0.2-1l-0.1,0c-0.6,0.7-1.4,1.2-2.5,1.2c-1.8,0-3-1.4-3-4.8c0-3.6,1.6-5,3.3-5
		c0.9,0,1.6,0.4,2.2,0.9v-2.7c0-0.2-0.1-0.3-0.2-0.4l-0.8-0.3l0.2-1.5h3.1v11.7c0,0.3,0,0.3,0.2,0.3l0.7,0.1v1.4H48.8z M48.3,164.8
		c-0.4-0.3-0.9-0.5-1.3-0.5c-1.1,0-1.6,1.2-1.6,2.8c0,1.7,0.4,2.7,1.4,2.7c0.5,0,1.1-0.4,1.5-0.8V164.8z"/>
	<path fill="#FFFFFF" d="M59.9,171.8l-1.2-6h-0.1l-1.2,6h-2.8l-1.9-7.5c-0.1-0.2-0.1-0.3-0.3-0.3l-0.6-0.2l0.2-1.5h3.9v1.5L55,164
		l1.2,5.1h0.1l1.4-6.4H60l1.3,6.4h0.1l1.2-5.1l-0.9-0.1l0.2-1.5h3.2v1.5l-0.6,0.1c-0.2,0-0.3,0.1-0.4,0.4l-1.9,7.4H59.9z"/>
	<path fill="#FFFFFF" d="M70.5,171.8l-0.2-1l-0.1,0c-0.6,0.7-1.4,1.2-2.6,1.2c-1.9,0-2.2-1.5-2.2-2.7c0-1.8,1-2.6,2.9-2.8l1.8-0.1
		v-1c0-0.8-0.1-1.4-1-1.4c-0.7,0-1.1,0.1-1.1,1.2l-2.2-0.2c0-2.4,1.9-2.8,3.3-2.8c2.3,0,3.3,0.7,3.3,3.3v4.4c0,0.3,0,0.3,0.2,0.4
		l0.7,0.1v1.4H70.5z M70.1,167.9l-1,0.1c-0.9,0.1-1.2,0.3-1.2,1.1c0,0.7,0.4,1,0.9,1c0.5,0,1-0.3,1.4-0.6V167.9z"/>
	<path fill="#FFFFFF" d="M73.9,171.8v-1.5l0.7-0.1c0.2,0,0.2-0.1,0.2-0.4v-5.3c0-0.2,0-0.3-0.2-0.4l-0.8-0.3l0.2-1.5h2.7l0.2,1.4H77
		c0.5-0.9,1.2-1.6,2.2-1.6c0.4,0,1.1,0.1,1.3,0.2v3.3l-1.8-0.1l-0.2-1c0-0.2-0.1-0.2-0.2-0.2c-0.4,0-0.9,0.4-1.1,0.6v4.8
		c0,0.3,0,0.3,0.2,0.4l1.5,0.1v1.4H73.9z"/>
	<path fill="#FFFFFF" d="M88.2,171.1c-1,0.5-2,0.9-3.2,0.9c-3,0-4-2.2-4-5c0-3.3,1.7-4.8,3.8-4.8c2,0,3.4,1.2,3.4,4.4
		c0,0.2,0,0.8,0,1.2h-4.7c0.1,1.3,0.6,2.1,1.8,2.1c0.6,0,1.2-0.2,2.3-0.6L88.2,171.1z M86,166.1c0-1.5-0.5-1.9-1.2-1.9
		c-0.7,0-1.2,0.4-1.3,1.9H86z"/>
	<path fill="#FFFFFF" d="M92.4,171.8v-1.4l1.1-0.1c0.2,0,0.2-0.1,0.2-0.4v-9.2c0-0.3,0-0.3-0.2-0.4l-1.1-0.1v-1.4h5.2v1.4l-1.2,0.1
		c-0.2,0-0.2,0.1-0.2,0.3v9.2c0,0.3,0,0.3,0.2,0.4l1.2,0.1v1.4H92.4z"/>
	<path fill="#FFFFFF" d="M104.1,171.8v-5.8c0-0.9,0-1.6-0.8-1.6c-0.6,0-1.3,0.4-1.6,0.7v4.8c0,0.3,0,0.3,0.2,0.4l0.7,0.1v1.4h-4.2
		v-1.4l0.7-0.1c0.2,0,0.2-0.1,0.2-0.4v-5.3c0-0.2,0-0.3-0.2-0.4l-0.8-0.3l0.2-1.5h2.7l0.1,0.9l0.1,0c0.8-0.7,1.7-1.2,2.7-1.2
		c1.7,0,2.3,1.1,2.3,3.1v4.6c0,0.3,0,0.3,0.2,0.4l0.8,0.1v1.4H104.1z"/>
	<path fill="#FFFFFF" d="M113.9,171.3c-0.7,0.4-1.6,0.7-2.5,0.7c-1.8,0-2.5-0.9-2.5-2.9v-4.7c0-0.1,0-0.2-0.1-0.2h-1.1v-1.6
		c1.4-0.2,1.9-1,2.1-2.9h1.5v2.6c0,0.1,0,0.2,0.1,0.2h2.2v1.8h-2.3v4.3c0,1.1,0.2,1.5,1,1.5c0.4,0,0.9-0.1,1.2-0.3L113.9,171.3z"/>
	<path fill="#FFFFFF" d="M121.4,171.1c-1,0.5-2,0.9-3.2,0.9c-3,0-4-2.2-4-5c0-3.3,1.7-4.8,3.8-4.8c2,0,3.4,1.2,3.4,4.4
		c0,0.2,0,0.8,0,1.2h-4.7c0.1,1.3,0.6,2.1,1.8,2.1c0.6,0,1.2-0.2,2.3-0.6L121.4,171.1z M119.1,166.1c0-1.5-0.5-1.9-1.2-1.9
		c-0.7,0-1.2,0.4-1.3,1.9H119.1z"/>
	<path fill="#FFFFFF" d="M129,164c0.3,0.4,0.6,1,0.6,1.8c0,2-1.3,3.2-3.3,3.2c-0.5,0-0.9-0.1-1.2-0.2l-0.5,1l1.5,0.1
		c2.7,0.2,4.2,0.3,4.2,2.7c0,2.1-1.6,3.2-4.2,3.2c-2.8,0-3.8-0.8-3.8-2.2c0-0.8,0.3-1.2,0.8-1.8c-0.5-0.3-0.7-0.7-0.7-1.2
		c0-0.4,0.2-0.8,0.4-1.1c0.3-0.3,0.6-0.7,1-1.1c-0.8-0.4-1.3-1.4-1.3-2.7c0-2.1,1.2-3.5,3.5-3.5c0.7,0,1.1,0.1,1.4,0.2h3v1.5
		L129,164z M124.4,172.3c-0.2,0.3-0.4,0.6-0.4,1c0,0.7,0.8,0.9,1.9,0.9c0.9,0,2.1-0.1,2.1-1c0-0.6-0.6-0.6-1.3-0.7L124.4,172.3z
		 M126.1,164c-0.8,0-1.5,0.5-1.5,1.7c0,0.9,0.4,1.5,1.4,1.5c0.9,0,1.4-0.6,1.4-1.5C127.5,164.5,127,164,126.1,164z"/>
	<path fill="#FFFFFF" d="M131,171.8v-1.5l0.7-0.1c0.2,0,0.2-0.1,0.2-0.4v-5.3c0-0.2,0-0.3-0.2-0.4l-0.8-0.3l0.2-1.5h2.7l0.2,1.4h0.1
		c0.5-0.9,1.2-1.6,2.2-1.6c0.4,0,1.1,0.1,1.3,0.2v3.3l-1.8-0.1l-0.2-1c0-0.2-0.1-0.2-0.2-0.2c-0.4,0-0.9,0.4-1.1,0.6v4.8
		c0,0.3,0,0.3,0.2,0.4l1.5,0.1v1.4H131z"/>
	<path fill="#FFFFFF" d="M143,171.8l-0.2-1l-0.1,0c-0.6,0.7-1.4,1.2-2.6,1.2c-1.9,0-2.2-1.5-2.2-2.7c0-1.8,1-2.6,2.9-2.8l1.8-0.1v-1
		c0-0.8-0.1-1.4-1-1.4c-0.7,0-1.1,0.1-1.1,1.2l-2.2-0.2c0-2.4,1.9-2.8,3.3-2.8c2.3,0,3.3,0.7,3.3,3.3v4.4c0,0.3,0,0.3,0.2,0.4
		l0.7,0.1v1.4H143z M142.6,167.9l-1,0.1c-0.9,0.1-1.2,0.3-1.2,1.1c0,0.7,0.4,1,0.9,1c0.5,0,1-0.3,1.4-0.6V167.9z"/>
	<path fill="#FFFFFF" d="M152.2,171.3c-0.7,0.4-1.6,0.7-2.5,0.7c-1.8,0-2.5-0.9-2.5-2.9v-4.7c0-0.1,0-0.2-0.1-0.2H146v-1.6
		c1.4-0.2,1.9-1,2.1-2.9h1.5v2.6c0,0.1,0,0.2,0.1,0.2h2.2v1.8h-2.3v4.3c0,1.1,0.2,1.5,1,1.5c0.4,0,0.9-0.1,1.2-0.3L152.2,171.3z"/>
	<path fill="#FFFFFF" d="M152.9,171.8v-1.4l0.8-0.1c0.2,0,0.2-0.1,0.2-0.4v-5.3c0-0.2,0-0.3-0.2-0.4l-0.8-0.3l0.2-1.5h3.2v7.5
		c0,0.3,0,0.3,0.2,0.4l0.8,0.1v1.4H152.9z M154.9,160.9c-0.9,0-1.4-0.6-1.4-1.6s0.5-1.6,1.4-1.6c0.9,0,1.4,0.6,1.4,1.6
		S155.8,160.9,154.9,160.9z"/>
	<path fill="#FFFFFF" d="M157.8,167.1c0-3,1.3-4.9,4.2-4.9c2.8,0,4,2,4,4.7c0,3.1-1.3,5-4.2,5C159,172,157.8,170,157.8,167.1z
		 M163.5,167c0-2.1-0.6-2.9-1.6-2.9c-1,0-1.7,0.7-1.7,2.9c0,2.2,0.6,3,1.6,3C162.9,170.1,163.5,169.3,163.5,167z"/>
	<path fill="#FFFFFF" d="M172.4,171.8v-5.8c0-0.9,0-1.6-0.8-1.6c-0.6,0-1.3,0.4-1.6,0.7v4.8c0,0.3,0,0.3,0.2,0.4l0.7,0.1v1.4h-4.2
		v-1.4l0.7-0.1c0.2,0,0.2-0.1,0.2-0.4v-5.3c0-0.2,0-0.3-0.2-0.4l-0.8-0.3l0.2-1.5h2.7l0.1,0.9l0.1,0c0.8-0.7,1.7-1.2,2.7-1.2
		c1.7,0,2.3,1.1,2.3,3.1v4.6c0,0.3,0,0.3,0.2,0.4l0.8,0.1v1.4H172.4z"/>
</g>
<g>
	<g>
		<g>
			<rect x="89.6" y="69.9" fill="#FFFFFF" width="19.4" height="19.4"/>
		</g>
	</g>
	<g>
		<g id="XMLID_18_">
			<g>
				<polygon fill="#FFFFFF" points="137.3,115.6 137.3,120.5 53.6,120.5 53.6,55.2 72,36.7 137.3,36.7 137.3,113.1 62.3,113.1 
					62.3,58.5 78.6,43 129.7,43 129.7,57.6 113.6,73.7 113.6,65.3 85.1,65.3 85.1,93.8 113.6,93.8 113.6,77.2 132.2,58.6 
					132.2,40.5 77.6,40.5 59.9,57.2 59.8,57.4 59.8,115.6 				"/>
			</g>
			<g>
			</g>
		</g>
	</g>
	<g>
		<g>
			<path fill="#FFFFFF" d="M67.1,31.7c0,0,0-0.5,0-0.8c0.3,0,0.5,0,0.8,0c0-0.3,0-0.5,0-0.8c0.3,0,0.8,0,0.8,0
				c0.1-0.2,0.1-0.4,0-0.7h-1.2l-2.3,2.3C65.9,31.8,66.5,31.9,67.1,31.7z"/>
		</g>
		<g>
			<path fill="#FFFFFF" d="M68.8,29.4c0,0.2,0.1,0.5,0,0.7c0,0-0.5,0-0.8,0c0,0.3,0,0.5,0,0.8c-0.3,0-0.5,0-0.8,0c0,0.3,0,0.8,0,0.8
				c-0.6,0.1-1.2,0.1-1.8,0L45.9,51.1v76.6h98.2V29.4H68.8z M139.8,123H51.1V54.1L71,34.2h68.8V123z"/>
		</g>
	</g>
</g>
</svg>
