<?xml version="1.0" encoding="utf-8"?>
<!-- Generator: Adobe Illustrator 18.1.1, SVG Export Plug-In . SVG Version: 6.00 Build 0)  -->
<!DOCTYPE svg PUBLIC "-//W3C//DTD SVG 1.1//EN" "http://www.w3.org/Graphics/SVG/1.1/DTD/svg11.dtd">
<svg version="1.1" id="Layer_1" xmlns="http://www.w3.org/2000/svg" xmlns:xlink="http://www.w3.org/1999/xlink" x="0px" y="0px"
	 viewBox="0 0 190.1 190.1" enable-background="new 0 0 190.1 190.1" xml:space="preserve">
<g>
	<rect x="0" y="0.1" fill="#424143" width="190.1" height="190.1"/>
</g>
<g>
	<path fill="#FFFFFF" d="M16,172.6v-1.4l1.3-0.1c0.2,0,0.2-0.1,0.2-0.4v-6.8h-0.1l-2.2,6.1h-2.5l-2.2-6.2h-0.1v6.8
		c0,0.3,0,0.3,0.2,0.4l1.3,0.1v1.4H7.4v-1.4l1-0.1c0.2,0,0.2-0.1,0.2-0.4v-9.2c0-0.3,0-0.3-0.2-0.4l-1-0.1v-1.4h4.1l2.7,8.2h0.1
		l2.8-8.2h4v1.4l-1,0.1c-0.2,0-0.2,0.1-0.2,0.3v9.3c0,0.2,0,0.3,0.2,0.3l1,0.1v1.4H16z"/>
	<path fill="#FFFFFF" d="M27.7,172.6l-0.1-1l-0.1,0c-0.6,0.6-1.4,1.2-2.7,1.2c-1.6,0-2.2-1.1-2.2-3.2v-4.4c0-0.3,0-0.3-0.2-0.4
		l-0.7-0.2l0.2-1.5h3.2v6c0,1.1,0.2,1.5,0.8,1.5c0.7,0,1.2-0.5,1.6-0.8v-4.6c0-0.3,0-0.3-0.2-0.4l-0.7-0.2l0.2-1.5h3.1v7.5
		c0,0.2,0,0.3,0.2,0.3l0.8,0.1v1.4H27.7z"/>
	<path fill="#FFFFFF" d="M31.2,172.6v-1.4l0.8-0.1c0.2,0,0.2-0.1,0.2-0.4v-9.5c0-0.2,0-0.3-0.2-0.4l-0.8-0.3l0.2-1.5h3.2v11.7
		c0,0.3,0,0.3,0.2,0.4l0.8,0.1v1.4H31.2z"/>
	<path fill="#FFFFFF" d="M42.1,172.1c-0.7,0.4-1.6,0.7-2.5,0.7c-1.8,0-2.5-0.9-2.5-2.9v-4.7c0-0.1,0-0.2-0.1-0.2h-1.1v-1.6
		c1.4-0.2,1.9-1,2.1-2.9h1.5v2.6c0,0.1,0,0.2,0.1,0.2h2.2v1.8h-2.3v4.3c0,1.1,0.2,1.5,1,1.5c0.4,0,0.9-0.1,1.2-0.3L42.1,172.1z"/>
	<path fill="#FFFFFF" d="M42.7,172.6v-1.4l0.8-0.1c0.2,0,0.2-0.1,0.2-0.4v-5.3c0-0.2,0-0.3-0.2-0.4l-0.8-0.3l0.2-1.5h3.2v7.5
		c0,0.3,0,0.3,0.2,0.4l0.8,0.1v1.4H42.7z M44.7,161.8c-0.9,0-1.4-0.6-1.4-1.6s0.5-1.6,1.4-1.6c0.9,0,1.4,0.6,1.4,1.6
		S45.6,161.8,44.7,161.8z"/>
	<path fill="#FFFFFF" d="M57.4,172.6v-5.8c0-0.7-0.1-1.5-0.9-1.5c-0.4,0-0.8,0.2-1.2,0.5c0,0.3,0,0.6,0,0.9v4.1c0,0.3,0,0.3,0.2,0.4
		l0.6,0.1v1.4H53v-5.9c0-0.7,0-1.5-0.8-1.5c-0.5,0-1,0.3-1.3,0.6v4.9c0,0.3,0,0.3,0.2,0.4l0.8,0.1v1.4h-4.3v-1.4l0.7-0.1
		c0.2,0,0.2-0.1,0.2-0.4v-5.3c0-0.2,0-0.3-0.2-0.4l-0.8-0.3l0.2-1.5h2.7l0.1,0.9l0.1,0c0.7-0.7,1.5-1.1,2.5-1.1
		c0.8,0,1.4,0.2,1.9,1.1c0.5-0.5,1.4-1.1,2.5-1.1c1.6,0,2.3,1,2.3,3v4.6c0,0.3,0,0.3,0.2,0.4l0.8,0.1v1.4H57.4z"/>
	<path fill="#FFFFFF" d="M68.5,171.9c-1,0.5-2,0.9-3.2,0.9c-3,0-4-2.2-4-5c0-3.3,1.7-4.8,3.8-4.8c2,0,3.4,1.2,3.4,4.4
		c0,0.2,0,0.8,0,1.2h-4.7c0.1,1.3,0.6,2.1,1.8,2.1c0.6,0,1.2-0.2,2.3-0.6L68.5,171.9z M66.3,166.9c0-1.5-0.5-1.9-1.2-1.9
		c-0.7,0-1.2,0.4-1.3,1.9H66.3z"/>
	<path fill="#FFFFFF" d="M75.3,172.6l-0.2-1l-0.1,0c-0.6,0.7-1.4,1.2-2.5,1.2c-1.8,0-3-1.4-3-4.8c0-3.6,1.6-5,3.3-5
		c0.9,0,1.6,0.4,2.2,0.9v-2.7c0-0.2-0.1-0.3-0.2-0.4l-0.8-0.3l0.2-1.5h3.1v11.7c0,0.3,0,0.3,0.2,0.3l0.7,0.1v1.4H75.3z M74.8,165.7
		c-0.4-0.3-0.9-0.5-1.3-0.5c-1.1,0-1.6,1.2-1.6,2.8c0,1.7,0.4,2.7,1.4,2.7c0.5,0,1.1-0.4,1.5-0.8V165.7z"/>
	<path fill="#FFFFFF" d="M78.7,172.6v-1.4l0.8-0.1c0.2,0,0.2-0.1,0.2-0.4v-5.3c0-0.2,0-0.3-0.2-0.4l-0.8-0.3l0.2-1.5H82v7.5
		c0,0.3,0,0.3,0.2,0.4l0.8,0.1v1.4H78.7z M80.7,161.8c-0.9,0-1.4-0.6-1.4-1.6s0.5-1.6,1.4-1.6c0.9,0,1.4,0.6,1.4,1.6
		S81.5,161.8,80.7,161.8z"/>
	<path fill="#FFFFFF" d="M88.8,172.6l-0.2-1l-0.1,0c-0.6,0.7-1.4,1.2-2.6,1.2c-1.9,0-2.2-1.5-2.2-2.7c0-1.8,1-2.6,2.9-2.8l1.8-0.1
		v-1c0-0.8-0.1-1.4-1-1.4c-0.7,0-1.1,0.1-1.1,1.2l-2.2-0.2c0-2.4,1.9-2.8,3.3-2.8c2.3,0,3.3,0.7,3.3,3.3v4.4c0,0.3,0,0.3,0.2,0.4
		l0.7,0.1v1.4H88.8z M88.4,168.7l-1,0.1c-0.9,0.1-1.2,0.3-1.2,1.1c0,0.7,0.4,1,0.9,1c0.5,0,1-0.3,1.4-0.6V168.7z"/>
	<path fill="#FFFFFF" d="M101.3,163.4l-0.2-1.5c0-0.2-0.1-0.3-0.2-0.3c-0.2-0.1-0.6-0.2-1.1-0.2c-1.2,0-1.7,0.6-1.7,1.5
		c0,1.2,1,1.5,2.2,1.9c1.5,0.5,3.1,1.2,3.1,3.9c0,3-2,4.1-4.3,4.1c-1.4,0-2.9-0.4-3.5-0.7v-3.5h1.7l0.3,1.7c0,0.2,0.1,0.3,0.3,0.3
		c0.2,0.1,0.7,0.2,1.3,0.2c1.2,0,1.9-0.6,1.9-1.7c0-1.2-0.9-1.5-1.9-1.9c-1.5-0.5-3.4-1-3.4-3.9c0-2.8,1.8-4.1,4.1-4.1
		c1.3,0,2.5,0.4,3.2,0.7v3.5L101.3,163.4z"/>
	<path fill="#FFFFFF" d="M110.4,172.1c-0.7,0.4-1.6,0.7-2.5,0.7c-1.8,0-2.5-0.9-2.5-2.9v-4.7c0-0.1,0-0.2-0.1-0.2h-1.1v-1.6
		c1.4-0.2,1.9-1,2.1-2.9h1.5v2.6c0,0.1,0,0.2,0.1,0.2h2.2v1.8h-2.3v4.3c0,1.1,0.2,1.5,1,1.5c0.4,0,0.9-0.1,1.2-0.3L110.4,172.1z"/>
	<path fill="#FFFFFF" d="M110.6,168c0-3,1.3-4.9,4.2-4.9c2.8,0,4,2,4,4.7c0,3.1-1.3,5-4.2,5C111.8,172.8,110.6,170.8,110.6,168z
		 M116.3,167.9c0-2.1-0.6-2.9-1.6-2.9c-1,0-1.7,0.7-1.7,2.9c0,2.2,0.6,3,1.6,3C115.7,170.9,116.3,170.1,116.3,167.9z"/>
	<path fill="#FFFFFF" d="M119.5,172.6v-1.5l0.7-0.1c0.2,0,0.2-0.1,0.2-0.4v-5.3c0-0.2,0-0.3-0.2-0.4l-0.8-0.3l0.2-1.5h2.7l0.2,1.4
		h0.1c0.5-0.9,1.2-1.6,2.2-1.6c0.4,0,1.1,0.1,1.3,0.2v3.3l-1.8-0.1l-0.2-1c0-0.2-0.1-0.2-0.2-0.2c-0.4,0-0.9,0.4-1.1,0.6v4.8
		c0,0.3,0,0.3,0.2,0.4l1.5,0.1v1.4H119.5z"/>
	<path fill="#FFFFFF" d="M128.1,176.4V175l1.2-0.2c0.2,0,0.3-0.1,0.4-0.4l0.7-1.7l-2.9-7.5c-0.1-0.2-0.1-0.3-0.3-0.3l-0.6-0.2
		l0.2-1.5h4.1v1.5l-1,0.1l1.7,4.8h0.1l1.6-4.8l-1-0.1l0.2-1.5h3.4v1.5l-0.5,0.1c-0.2,0-0.3,0.1-0.4,0.3l-3.4,9.7l1.6,0.2v1.4H128.1z
		"/>
	<path fill="#FFFFFF" d="M142.5,172.1c-0.7,0.4-1.6,0.7-2.5,0.7c-1.8,0-2.5-0.9-2.5-2.9v-4.7c0-0.1,0-0.2-0.1-0.2h-1.1v-1.6
		c1.4-0.2,1.9-1,2.1-2.9h1.5v2.6c0,0.1,0,0.2,0.1,0.2h2.2v1.8h-2.3v4.3c0,1.1,0.2,1.5,1,1.5c0.4,0,0.9-0.1,1.2-0.3L142.5,172.1z"/>
	<path fill="#FFFFFF" d="M149.9,171.9c-1,0.5-2,0.9-3.2,0.9c-3,0-4-2.2-4-5c0-3.3,1.7-4.8,3.8-4.8c2,0,3.4,1.2,3.4,4.4
		c0,0.2,0,0.8,0,1.2h-4.7c0.1,1.3,0.6,2.1,1.8,2.1c0.6,0,1.2-0.2,2.3-0.6L149.9,171.9z M147.7,166.9c0-1.5-0.5-1.9-1.2-1.9
		c-0.7,0-1.2,0.4-1.3,1.9H147.7z"/>
	<path fill="#FFFFFF" d="M150.7,172.6v-1.4l0.8-0.1c0.2,0,0.2-0.1,0.2-0.4v-9.5c0-0.2,0-0.3-0.2-0.4l-0.8-0.3l0.2-1.5h3.2v11.7
		c0,0.3,0,0.3,0.2,0.4l0.8,0.1v1.4H150.7z"/>
	<path fill="#FFFFFF" d="M155.6,172.6v-1.4l0.8-0.1c0.2,0,0.2-0.1,0.2-0.4v-9.5c0-0.2,0-0.3-0.2-0.4l-0.8-0.3l0.2-1.5h3.2v11.7
		c0,0.3,0,0.3,0.2,0.4l0.8,0.1v1.4H155.6z"/>
	<path fill="#FFFFFF" d="M160.4,172.6v-1.4l0.8-0.1c0.2,0,0.2-0.1,0.2-0.4v-5.3c0-0.2,0-0.3-0.2-0.4l-0.8-0.3l0.2-1.5h3.2v7.5
		c0,0.3,0,0.3,0.2,0.4l0.8,0.1v1.4H160.4z M162.4,161.8c-0.9,0-1.4-0.6-1.4-1.6s0.5-1.6,1.4-1.6c0.9,0,1.4,0.6,1.4,1.6
		S163.3,161.8,162.4,161.8z"/>
	<path fill="#FFFFFF" d="M171.1,172.6v-5.8c0-0.9,0-1.6-0.8-1.6c-0.6,0-1.3,0.4-1.6,0.7v4.8c0,0.3,0,0.3,0.2,0.4l0.7,0.1v1.4h-4.2
		v-1.4l0.7-0.1c0.2,0,0.2-0.1,0.2-0.4v-5.3c0-0.2,0-0.3-0.2-0.4l-0.8-0.3l0.2-1.5h2.7l0.1,0.9l0.1,0c0.8-0.7,1.7-1.2,2.7-1.2
		c1.7,0,2.3,1.1,2.3,3.1v4.6c0,0.3,0,0.3,0.2,0.4l0.8,0.1v1.4H171.1z"/>
	<path fill="#FFFFFF" d="M181.7,164.9c0.3,0.4,0.6,1,0.6,1.8c0,2-1.3,3.2-3.3,3.2c-0.5,0-0.9-0.1-1.2-0.2l-0.5,1l1.5,0.1
		c2.7,0.2,4.2,0.3,4.2,2.7c0,2.1-1.6,3.2-4.2,3.2c-2.8,0-3.8-0.8-3.8-2.2c0-0.8,0.3-1.2,0.8-1.8c-0.5-0.3-0.7-0.7-0.7-1.2
		c0-0.4,0.2-0.8,0.4-1.1c0.3-0.3,0.6-0.7,1-1.1c-0.8-0.4-1.3-1.4-1.3-2.7c0-2.1,1.2-3.5,3.5-3.5c0.7,0,1.1,0.1,1.4,0.2h3v1.5
		L181.7,164.9z M177.2,173.1c-0.2,0.3-0.4,0.6-0.4,1c0,0.7,0.8,0.9,1.9,0.9c0.9,0,2.1-0.1,2.1-1c0-0.6-0.6-0.6-1.3-0.7L177.2,173.1z
		 M178.8,164.8c-0.8,0-1.5,0.5-1.5,1.7c0,0.9,0.4,1.5,1.4,1.5c0.9,0,1.4-0.6,1.4-1.5C180.2,165.4,179.7,164.8,178.8,164.8z"/>
</g>
<g>
	<g>
		<g>
			<g>
				<g>
					<g>
						<path fill="#FFFFFF" d="M154.5,42.4v-8.1l-1.2-0.5c-0.4-0.2-10-3.9-22.7-3.9c-13.7,0-25.4,4.2-35,12.4
							c-9.6-8.2-21.3-12.4-35-12.4c-12.8,0-22.3,3.7-22.7,3.9l-1.2,0.5v7.5c-3.9,0.7-6.3,2-6.3,4.1c0,11,0,77.6,0,77.6h57.2
							c2,1.8,4.9,2.9,8.1,2.9c3.2,0,6.1-1.1,8.1-2.9h55.7c0,0,0-73.8,0-77.6C159.6,44.2,157.7,43.1,154.5,42.4z M150.8,112.2
							c-5.2-2.1-11.3-3.2-17.9-3.2c-16.4,0-31.9,6.3-36.6,8.3l0-0.7c-0.2,0-0.5,0-0.7,0c-0.2,0-0.4,0-0.5,0v0.7
							c-4.7-2-21.1-8.2-37.5-8.2c-6.5,0-12.2,1-17.1,3V36.8c2.8-1,10.6-3.2,20.2-3.2c12.6,0,23.4,3.8,32.2,11.2l1.6-0.1l-0.1,0.1
							h-1.5l2.2,2.9v1.3c0.2,0,0.3,0,0.5,0c0.2,0,0.5,0,0.7,0l0-1.2c0.5-0.8,1.2-2,1.9-2.7l0.3-0.3c8.8-7.4,19.6-11.2,32.2-11.2
							c9.5,0,17.3,2.2,20.2,3.2V112.2z"/>
					</g>
					<g>
						<line fill="#FFFFFF" x1="92.8" y1="44.9" x2="92.8" y2="44.9"/>
					</g>
				</g>
			</g>
		</g>
	</g>
	<g>
		<g>
			<g>
				<path fill="#FFFFFF" d="M96.7,56.2c-12.7,0-23,10.3-23,23c0,12.7,10.3,23,23,23c12.7,0,23-10.3,23-23
					C119.7,66.5,109.4,56.2,96.7,56.2z M96.7,98c-10.3,0-18.7-8.4-18.7-18.7c0-10.3,8.4-18.7,18.7-18.7c10.3,0,18.7,8.4,18.7,18.7
					C115.4,89.6,107,98,96.7,98z M90.9,69.2l17.3,10.1L90.9,89.3V69.2z"/>
			</g>
		</g>
	</g>
</g>
</svg>
