<?xml version="1.0" encoding="utf-8"?>
<!-- Generator: Adobe Illustrator 18.1.1, SVG Export Plug-In . SVG Version: 6.00 Build 0)  -->
<!DOCTYPE svg PUBLIC "-//W3C//DTD SVG 1.1//EN" "http://www.w3.org/Graphics/SVG/1.1/DTD/svg11.dtd">
<svg version="1.1" id="Layer_1" xmlns="http://www.w3.org/2000/svg" xmlns:xlink="http://www.w3.org/1999/xlink" x="0px" y="0px"
	 viewBox="0 0 190.1 190.1" enable-background="new 0 0 190.1 190.1" xml:space="preserve">
<g>
	<rect x="0" y="0" fill="#424143" width="190.1" height="190.1"/>
</g>
<g>
	<path fill="#FFFFFF" d="M43.8,159.4c0-0.3,0-0.3-0.2-0.4l-1-0.1v-1.4h4.6v1.4l-1,0.1c-0.2,0-0.2,0.1-0.2,0.3v6.5
		c0,3.4-1.7,4.9-4.4,4.9c-3.1,0-4.4-1.6-4.4-5v-6.4c0-0.3,0-0.3-0.2-0.4l-1-0.1v-1.4h4.9v1.4l-1,0.1c-0.2,0-0.2,0.1-0.2,0.3v5.9
		c0,2.1,0.4,3.2,2.1,3.2c1.6,0,2.2-0.8,2.2-3.1V159.4z"/>
	<path fill="#FFFFFF" d="M52.1,163.9l-0.2-0.9c0-0.1,0-0.2-0.2-0.3c-0.2-0.1-0.6-0.1-1-0.1c-0.8,0-1.2,0.3-1.2,0.9
		c0,0.7,0.8,0.9,1.8,1.2c1.2,0.3,2.6,0.8,2.6,2.9c0,2.2-1.5,3.1-3.5,3.1c-1.4,0-2.8-0.4-3-0.6v-2.6l1.6,0.1l0.2,1
		c0,0.2,0,0.2,0.2,0.3c0.2,0.1,0.6,0.2,1.2,0.2c0.8,0,1.3-0.3,1.3-0.9c0-0.7-0.6-0.9-1.4-1.1c-1.3-0.3-3-0.6-3-3
		c0-2.2,1.6-3.2,3.4-3.2c1.2,0,2.4,0.3,2.8,0.5v2.6L52.1,163.9z"/>
	<path fill="#FFFFFF" d="M61.9,169.8c-1,0.5-2,0.9-3.2,0.9c-3,0-4-2.2-4-5c0-3.3,1.7-4.8,3.8-4.8c2,0,3.4,1.2,3.4,4.4
		c0,0.2,0,0.8,0,1.2h-4.7c0.1,1.3,0.6,2.1,1.8,2.1c0.6,0,1.2-0.2,2.3-0.6L61.9,169.8z M59.7,164.8c0-1.5-0.5-1.9-1.2-1.9
		c-0.7,0-1.2,0.4-1.3,1.9H59.7z"/>
	<path fill="#FFFFFF" d="M62.8,170.5V169l0.7-0.1c0.2,0,0.2-0.1,0.2-0.4v-5.3c0-0.2,0-0.3-0.2-0.4l-0.8-0.3l0.2-1.5h2.7l0.2,1.4h0.1
		c0.5-0.9,1.2-1.6,2.2-1.6c0.4,0,1.1,0.1,1.3,0.2v3.3l-1.8-0.1l-0.2-1c0-0.2-0.1-0.2-0.2-0.2c-0.4,0-0.9,0.4-1.1,0.6v4.8
		c0,0.3,0,0.3,0.2,0.4l1.5,0.1v1.4H62.8z"/>
	<path fill="#FFFFFF" d="M73.4,170.5v-1.4l1-0.1c0.2,0,0.2-0.1,0.2-0.4v-9.2c0-0.3,0-0.3-0.2-0.4l-1-0.1v-1.4h8.2v3.6l-1.7-0.1
		l-0.2-1.4c0-0.2-0.1-0.2-0.3-0.2H77v3.5h3.6v2H77v3.6h2.8c0.2,0,0.2,0,0.2-0.2l0.2-1.6h1.7v3.7H73.4z"/>
	<path fill="#FFFFFF" d="M87.2,170.5v-1.4l0.7-0.2l-1.2-1.8l-1.3,1.8l0.9,0.2v1.4h-3.7v-1.4l0.7-0.2c0.2,0,0.3-0.1,0.4-0.3l2-2.6
		l-2.1-2.9c-0.1-0.2-0.2-0.2-0.4-0.3l-0.6-0.2l0.2-1.5H87v1.5l-0.8,0.1l1.1,1.7l1.3-1.7l-0.8-0.1l0.2-1.5h3.4v1.5l-0.7,0.2
		c-0.2,0.1-0.2,0.2-0.4,0.3l-1.9,2.4l2.2,3.1c0.2,0.2,0.2,0.3,0.4,0.3l0.7,0.1v1.4H87.2z"/>
	<path fill="#FFFFFF" d="M92.1,174.3v-1.4l0.6-0.1c0.2,0,0.3-0.1,0.3-0.4v-9.1c0-0.2,0-0.3-0.2-0.4l-0.8-0.3l0.2-1.5h2.7L95,162
		l0.1,0c0.7-0.7,1.7-1.1,2.6-1.1c1.7,0,3,1.3,3,4.6c0,2.2-0.6,5.2-3.2,5.2c-0.8,0-1.6-0.3-2.2-0.9v2.6c0,0.3,0,0.3,0.2,0.4l1.6,0.2
		v1.4H92.1z M95.3,167.9c0.3,0.3,0.9,0.7,1.4,0.7c1,0,1.5-1.2,1.5-2.9c0-1.9-0.5-2.6-1.3-2.6c-0.6,0-1.3,0.4-1.6,0.6V167.9z"/>
	<path fill="#FFFFFF" d="M108.7,169.8c-1,0.5-2,0.9-3.2,0.9c-3,0-4-2.2-4-5c0-3.3,1.7-4.8,3.8-4.8c2,0,3.4,1.2,3.4,4.4
		c0,0.2,0,0.8,0,1.2H104c0.1,1.3,0.6,2.1,1.8,2.1c0.6,0,1.2-0.2,2.3-0.6L108.7,169.8z M106.4,164.8c0-1.5-0.5-1.9-1.2-1.9
		c-0.7,0-1.2,0.4-1.3,1.9H106.4z"/>
	<path fill="#FFFFFF" d="M109.6,170.5V169l0.7-0.1c0.2,0,0.2-0.1,0.2-0.4v-5.3c0-0.2,0-0.3-0.2-0.4l-0.8-0.3l0.2-1.5h2.7l0.2,1.4
		h0.1c0.5-0.9,1.2-1.6,2.2-1.6c0.4,0,1.1,0.1,1.3,0.2v3.3l-1.8-0.1l-0.2-1c0-0.2-0.1-0.2-0.2-0.2c-0.4,0-0.9,0.4-1.1,0.6v4.8
		c0,0.3,0,0.3,0.2,0.4l1.5,0.1v1.4H109.6z"/>
	<path fill="#FFFFFF" d="M116.8,170.5v-1.4l0.8-0.1c0.2,0,0.2-0.1,0.2-0.4v-5.3c0-0.2,0-0.3-0.2-0.4l-0.8-0.3l0.2-1.5h3.2v7.5
		c0,0.3,0,0.3,0.2,0.4l0.8,0.1v1.4H116.8z M118.7,159.7c-0.9,0-1.4-0.6-1.4-1.6s0.5-1.6,1.4-1.6c0.9,0,1.4,0.6,1.4,1.6
		S119.6,159.7,118.7,159.7z"/>
	<path fill="#FFFFFF" d="M128.9,169.8c-1,0.5-2,0.9-3.2,0.9c-3,0-4-2.2-4-5c0-3.3,1.7-4.8,3.8-4.8c2,0,3.4,1.2,3.4,4.4
		c0,0.2,0,0.8,0,1.2h-4.7c0.1,1.3,0.6,2.1,1.8,2.1c0.6,0,1.2-0.2,2.3-0.6L128.9,169.8z M126.6,164.8c0-1.5-0.5-1.9-1.2-1.9
		c-0.7,0-1.2,0.4-1.3,1.9H126.6z"/>
	<path fill="#FFFFFF" d="M135.5,170.5v-5.8c0-0.9,0-1.6-0.8-1.6c-0.6,0-1.3,0.4-1.6,0.7v4.8c0,0.3,0,0.3,0.2,0.4l0.7,0.1v1.4h-4.2
		V169l0.7-0.1c0.2,0,0.2-0.1,0.2-0.4v-5.3c0-0.2,0-0.3-0.2-0.4l-0.8-0.3l0.2-1.5h2.7l0.1,0.9l0.1,0c0.8-0.7,1.7-1.2,2.7-1.2
		c1.7,0,2.3,1.1,2.3,3.1v4.6c0,0.3,0,0.3,0.2,0.4l0.8,0.1v1.4H135.5z"/>
	<path fill="#FFFFFF" d="M146.3,169.8c-0.7,0.5-1.8,0.9-2.9,0.9c-2.8,0-4-2-4-4.8c0-3.4,1.8-5,4.2-5c1.2,0,2.3,0.4,2.7,0.8v2.8
		l-1.6-0.1l-0.2-1.2c0-0.1,0-0.2-0.2-0.3c-0.2-0.1-0.5-0.1-0.8-0.1c-0.9,0-1.7,0.7-1.7,2.8c0,2.3,0.9,3,2,3c0.8,0,1.5-0.3,1.9-0.5
		L146.3,169.8z"/>
	<path fill="#FFFFFF" d="M154.2,169.8c-1,0.5-2,0.9-3.2,0.9c-3,0-4-2.2-4-5c0-3.3,1.7-4.8,3.8-4.8c2,0,3.4,1.2,3.4,4.4
		c0,0.2,0,0.8,0,1.2h-4.7c0.1,1.3,0.6,2.1,1.8,2.1c0.6,0,1.2-0.2,2.3-0.6L154.2,169.8z M152,164.8c0-1.5-0.5-1.9-1.2-1.9
		c-0.7,0-1.2,0.4-1.3,1.9H152z"/>
</g>
<g>
	<g>
		<path fill="#FFFFFF" d="M73.7,101.1V37.9h40.1v48.8h3.9V34.7c0-3.1-2.5-5.6-5.6-5.6H75.4c-3.1,0-5.6,2.5-5.6,5.6v71.2
			c0,3.1,2.5,5.6,5.6,5.6h10l-5.5-10.3L73.7,101.1L73.7,101.1z M87.9,33.1h11.7c0.4,0,0.7,0.3,0.7,0.7c0,0.4-0.3,0.7-0.7,0.7H87.9
			c-0.4,0-0.7-0.3-0.7-0.7C87.2,33.4,87.5,33.1,87.9,33.1z M120.3,94.2v-0.7c0-1.5-1.2-2.8-2.8-2.8h-0.3c-1.5,0-2.8,1.2-2.8,2.8v0.7
			v2.4h-1.1v-2.4v-0.7c0-1.5-1.2-2.8-2.8-2.8h-0.3c-1.5,0-2.8,1.2-2.8,2.8v3.1h-1.1v-3.1c0-1.5-1.2-2.8-2.8-2.8h-0.3
			c-1.5,0-2.8,1.2-2.8,2.8v0.7v2.4h-0.9v-7.3c5.7-1.5,10-6.7,10-12.8c0-7.3-6-13.3-13.3-13.3s-13.3,6-13.3,13.3
			c0,6.5,4.6,11.8,10.7,13.1v7.1v3.3v6.7c-3-3.2-4.8-6.7-6.7-7.1c-2.5-0.6-4.6,1.3-2.9,4.6c1.7,3.3,9.9,17.6,9.9,17.6
			c1.1,2.6,4.6,6.5,12.8,6.5c13.2,0,13.2-11.8,13.2-11.8V99.5c0,0,0,0,0,0L120.3,94.2L120.3,94.2z M96.9,75.7l-0.3,0
			c-1.5,0-2.8,1.3-2.8,2.8v3.1c-1.9-1-3.2-2.9-3.2-5.1c0-3.2,2.6-5.8,5.8-5.8c3.2,0,5.8,2.6,5.8,5.8c0,1.9-1,3.6-2.4,4.7v-2.6
			C99.7,77,98.4,75.7,96.9,75.7z M84.4,76.5c0-6.6,5.4-11.9,11.9-11.9c6.6,0,11.9,5.4,11.9,11.9c0,5.4-3.7,10-8.6,11.4v-3.6
			c3-1.3,5.2-4.3,5.2-7.8c0-4.7-3.8-8.5-8.5-8.5s-8.5,3.8-8.5,8.5c0,3.8,2.5,6.9,5.9,8.1v3.6C88.5,87,84.4,82.2,84.4,76.5z"/>
	</g>
</g>
</svg>
