<?xml version="1.0" encoding="utf-8"?>
<!-- Generator: Adobe Illustrator 18.1.1, SVG Export Plug-In . SVG Version: 6.00 Build 0)  -->
<!DOCTYPE svg PUBLIC "-//W3C//DTD SVG 1.1//EN" "http://www.w3.org/Graphics/SVG/1.1/DTD/svg11.dtd">
<svg version="1.1" id="Layer_1" xmlns="http://www.w3.org/2000/svg" xmlns:xlink="http://www.w3.org/1999/xlink" x="0px" y="0px"
	 viewBox="0 0 190.1 190.1" enable-background="new 0 0 190.1 190.1" xml:space="preserve">
<g>
	<rect x="0" y="0" fill="#424143" width="190.1" height="190.1"/>
</g>
<g>
	<path fill="#FFFFFF" d="M23.7,172.8v-1.4l1.1-0.1c0.2,0,0.2-0.1,0.2-0.4v-9.2c0-0.3,0-0.3-0.2-0.4l-1.1-0.1v-1.4h5.2v1.4l-1.2,0.1
		c-0.2,0-0.2,0.1-0.2,0.3v9.2c0,0.3,0,0.3,0.2,0.4l1.2,0.1v1.4H23.7z"/>
	<path fill="#FFFFFF" d="M35.4,172.8v-5.8c0-0.9,0-1.6-0.8-1.6c-0.6,0-1.3,0.4-1.6,0.7v4.8c0,0.3,0,0.3,0.2,0.4l0.7,0.1v1.4h-4.2
		v-1.4l0.7-0.1c0.2,0,0.2-0.1,0.2-0.4v-5.3c0-0.2,0-0.3-0.2-0.4l-0.8-0.3l0.2-1.5h2.7l0.1,0.9l0.1,0c0.8-0.7,1.7-1.2,2.7-1.2
		c1.7,0,2.3,1.1,2.3,3.1v4.6c0,0.3,0,0.3,0.2,0.4l0.8,0.1v1.4H35.4z"/>
	<path fill="#FFFFFF" d="M45.2,172.3c-0.7,0.4-1.6,0.7-2.5,0.7c-1.8,0-2.5-0.9-2.5-2.9v-4.7c0-0.1,0-0.2-0.1-0.2H39v-1.6
		c1.4-0.2,1.9-1,2.1-2.9h1.5v2.6c0,0.1,0,0.2,0.1,0.2h2.2v1.8h-2.3v4.3c0,1.1,0.2,1.5,1,1.5c0.4,0,0.9-0.1,1.2-0.3L45.2,172.3z"/>
	<path fill="#FFFFFF" d="M52.6,172.1c-1,0.5-2,0.9-3.2,0.9c-3,0-4-2.2-4-5c0-3.3,1.7-4.8,3.8-4.8c2,0,3.4,1.2,3.4,4.4
		c0,0.2,0,0.8,0,1.2H48c0.1,1.3,0.6,2.1,1.8,2.1c0.6,0,1.2-0.2,2.3-0.6L52.6,172.1z M50.4,167.1c0-1.5-0.5-1.9-1.2-1.9
		c-0.7,0-1.2,0.4-1.3,1.9H50.4z"/>
	<path fill="#FFFFFF" d="M53.6,172.8v-1.5l0.7-0.1c0.2,0,0.2-0.1,0.2-0.4v-5.3c0-0.2,0-0.3-0.2-0.4l-0.8-0.3l0.2-1.5h2.7l0.2,1.4
		h0.1c0.5-0.9,1.2-1.6,2.2-1.6c0.4,0,1.1,0.1,1.3,0.2v3.3l-1.8-0.1l-0.2-1c0-0.2-0.1-0.2-0.2-0.2c-0.4,0-0.9,0.4-1.1,0.6v4.8
		c0,0.3,0,0.3,0.2,0.4l1.5,0.1v1.4H53.6z"/>
	<path fill="#FFFFFF" d="M65.6,172.8l-0.2-1l-0.1,0c-0.6,0.7-1.4,1.2-2.6,1.2c-1.9,0-2.2-1.5-2.2-2.7c0-1.8,1-2.6,2.9-2.8l1.8-0.1
		v-1c0-0.8-0.1-1.4-1-1.4c-0.7,0-1.1,0.1-1.1,1.2l-2.2-0.2c0-2.4,1.9-2.8,3.3-2.8c2.3,0,3.3,0.7,3.3,3.3v4.4c0,0.3,0,0.3,0.2,0.4
		l0.7,0.1v1.4H65.6z M65.2,168.9l-1,0.1c-0.9,0.1-1.2,0.3-1.2,1.1c0,0.7,0.4,1,0.9,1c0.5,0,1-0.3,1.4-0.6V168.9z"/>
	<path fill="#FFFFFF" d="M75.9,172.1c-0.7,0.5-1.8,0.9-2.9,0.9c-2.8,0-4-2-4-4.8c0-3.4,1.8-5,4.2-5c1.2,0,2.3,0.4,2.7,0.8v2.8
		l-1.6-0.1l-0.2-1.2c0-0.1,0-0.2-0.2-0.3c-0.2-0.1-0.5-0.1-0.8-0.1c-0.9,0-1.7,0.7-1.7,2.8c0,2.3,0.9,3,2,3c0.8,0,1.5-0.3,1.9-0.5
		L75.9,172.1z"/>
	<path fill="#FFFFFF" d="M82.7,172.3c-0.7,0.4-1.6,0.7-2.5,0.7c-1.8,0-2.5-0.9-2.5-2.9v-4.7c0-0.1,0-0.2-0.1-0.2h-1.1v-1.6
		c1.4-0.2,1.9-1,2.1-2.9H80v2.6c0,0.1,0,0.2,0.1,0.2h2.2v1.8H80v4.3c0,1.1,0.2,1.5,1,1.5c0.4,0,0.9-0.1,1.2-0.3L82.7,172.3z"/>
	<path fill="#FFFFFF" d="M83.4,172.8v-1.4l0.8-0.1c0.2,0,0.2-0.1,0.2-0.4v-5.3c0-0.2,0-0.3-0.2-0.4l-0.8-0.3l0.2-1.5h3.2v7.5
		c0,0.3,0,0.3,0.2,0.4l0.8,0.1v1.4H83.4z M85.4,161.9c-0.9,0-1.4-0.6-1.4-1.6s0.5-1.6,1.4-1.6c0.9,0,1.4,0.6,1.4,1.6
		S86.3,161.9,85.4,161.9z"/>
	<path fill="#FFFFFF" d="M91.1,172.8l-2.4-7.5c-0.1-0.2-0.1-0.3-0.3-0.3l-0.6-0.2l0.2-1.5h4.2v1.5l-1,0.1l1.6,5.1h0.1l1.6-5.1
		l-1-0.1l0.2-1.5h3.6v1.5l-0.6,0.1c-0.2,0.1-0.3,0.1-0.4,0.3l-2.4,7.5H91.1z"/>
	<path fill="#FFFFFF" d="M104.4,172.1c-1,0.5-2,0.9-3.2,0.9c-3,0-4-2.2-4-5c0-3.3,1.7-4.8,3.8-4.8c2,0,3.4,1.2,3.4,4.4
		c0,0.2,0,0.8,0,1.2h-4.7c0.1,1.3,0.6,2.1,1.8,2.1c0.6,0,1.2-0.2,2.3-0.6L104.4,172.1z M102.2,167.1c0-1.5-0.5-1.9-1.2-1.9
		c-0.7,0-1.2,0.4-1.3,1.9H102.2z"/>
	<path fill="#FFFFFF" d="M117.6,172.8l-1.5-6.6H116l-1.4,6.6h-3l-2.3-11.1c0-0.2-0.2-0.3-0.3-0.3l-0.8-0.2l0.2-1.4h4.7v1.4l-1.3,0.2
		l1.6,8.8h0.1l1.8-8h2.3l1.8,8h0.1l1.6-8.9l-1.3-0.2l0.2-1.4h4.2v1.4l-0.7,0.2c-0.2,0-0.3,0.1-0.4,0.3l-2.2,11.1H117.6z"/>
	<path fill="#FFFFFF" d="M130.7,172.1c-1,0.5-2,0.9-3.2,0.9c-3,0-4-2.2-4-5c0-3.3,1.7-4.8,3.8-4.8c2,0,3.4,1.2,3.4,4.4
		c0,0.2,0,0.8,0,1.2H126c0.1,1.3,0.6,2.1,1.8,2.1c0.6,0,1.2-0.2,2.3-0.6L130.7,172.1z M128.5,167.1c0-1.5-0.5-1.9-1.2-1.9
		c-0.7,0-1.2,0.4-1.3,1.9H128.5z"/>
	<path fill="#FFFFFF" d="M132,172.8c0.1-0.8,0.2-1.7,0.2-2.6v-8.8c0-0.2,0-0.3-0.2-0.4l-0.8-0.3l0.2-1.5h3.2v5l0.1,0
		c0.7-0.6,1.4-1,2.3-1c1.7,0,3,1.3,3,4.6c0,3.7-1.3,5.2-3.2,5.2c-1,0-1.8-0.5-2.3-1.1l-0.1,0l-0.1,0.9H132z M134.6,170.2
		c0.4,0.4,0.9,0.7,1.4,0.7c1,0,1.5-1.1,1.5-2.9c0-1.4-0.4-2.6-1.4-2.6c-0.6,0-1.1,0.3-1.5,0.6V170.2z"/>
	<path fill="#FFFFFF" d="M145.5,166.2l-0.2-0.9c0-0.1,0-0.2-0.2-0.3c-0.2-0.1-0.6-0.1-1-0.1c-0.8,0-1.2,0.3-1.2,0.9
		c0,0.7,0.8,0.9,1.8,1.2c1.2,0.3,2.6,0.8,2.6,2.9c0,2.2-1.5,3.1-3.5,3.1c-1.4,0-2.8-0.4-3-0.6v-2.6l1.6,0.1l0.2,1
		c0,0.2,0,0.2,0.2,0.3c0.2,0.1,0.6,0.2,1.2,0.2c0.8,0,1.3-0.3,1.3-0.9c0-0.7-0.6-0.9-1.4-1.1c-1.3-0.3-3-0.6-3-3
		c0-2.2,1.6-3.2,3.4-3.2c1.2,0,2.4,0.3,2.8,0.5v2.6L145.5,166.2z"/>
	<path fill="#FFFFFF" d="M148.1,172.8v-1.4l0.8-0.1c0.2,0,0.2-0.1,0.2-0.4v-5.3c0-0.2,0-0.3-0.2-0.4l-0.8-0.3l0.2-1.5h3.2v7.5
		c0,0.3,0,0.3,0.2,0.4l0.8,0.1v1.4H148.1z M150.1,161.9c-0.9,0-1.4-0.6-1.4-1.6s0.5-1.6,1.4-1.6c0.9,0,1.4,0.6,1.4,1.6
		S151,161.9,150.1,161.9z"/>
	<path fill="#FFFFFF" d="M159,172.3c-0.7,0.4-1.6,0.7-2.5,0.7c-1.8,0-2.5-0.9-2.5-2.9v-4.7c0-0.1,0-0.2-0.1-0.2h-1.1v-1.6
		c1.4-0.2,1.9-1,2.1-2.9h1.5v2.6c0,0.1,0,0.2,0.1,0.2h2.2v1.8h-2.3v4.3c0,1.1,0.2,1.5,1,1.5c0.4,0,0.9-0.1,1.2-0.3L159,172.3z"/>
	<path fill="#FFFFFF" d="M166.4,172.1c-1,0.5-2,0.9-3.2,0.9c-3,0-4-2.2-4-5c0-3.3,1.7-4.8,3.8-4.8c2,0,3.4,1.2,3.4,4.4
		c0,0.2,0,0.8,0,1.2h-4.7c0.1,1.3,0.6,2.1,1.8,2.1c0.6,0,1.2-0.2,2.3-0.6L166.4,172.1z M164.2,167.1c0-1.5-0.5-1.9-1.2-1.9
		c-0.7,0-1.2,0.4-1.3,1.9H164.2z"/>
</g>
<g>
	<g>
		<g>
			<g>
				<g>
					<path fill="#FFFFFF" d="M100.1,71.3l-1.8-0.5c-0.2-0.1-0.5-0.1-0.7,0.1c-0.2,0.1-0.4,0.3-0.5,0.6l-11,38.2
						c-0.1,0.3-0.1,0.5,0.1,0.7c0.1,0.2,0.3,0.4,0.6,0.5l1.8,0.5c0.2,0.1,0.5,0.1,0.7-0.1c0.2-0.1,0.4-0.3,0.5-0.6l11-38.2
						c0.1-0.3,0.1-0.5-0.1-0.7C100.6,71.5,100.4,71.3,100.1,71.3z"/>
				</g>
				<g>
					<path fill="#FFFFFF" d="M83.6,78.7c0-0.3-0.1-0.5-0.3-0.7l-1.5-1.5c-0.2-0.2-0.4-0.3-0.7-0.3s-0.5,0.1-0.7,0.3L66.7,90.3
						c-0.2,0.2-0.3,0.4-0.3,0.7c0,0.3,0.1,0.5,0.3,0.7l13.8,13.8c0.2,0.2,0.4,0.3,0.7,0.3c0.3,0,0.5-0.1,0.7-0.3l1.5-1.5
						c0.2-0.2,0.3-0.4,0.3-0.7c0-0.3-0.1-0.5-0.3-0.7L71.7,91l11.6-11.6C83.5,79.2,83.6,79,83.6,78.7z"/>
				</g>
				<g>
					<path fill="#FFFFFF" d="M120.2,90.3l-13.8-13.8c-0.2-0.2-0.4-0.3-0.7-0.3c-0.3,0-0.5,0.1-0.7,0.3l-1.5,1.5
						c-0.2,0.2-0.3,0.4-0.3,0.7s0.1,0.5,0.3,0.7L115.2,91l-11.6,11.6c-0.2,0.2-0.3,0.4-0.3,0.7c0,0.3,0.1,0.5,0.3,0.7l1.5,1.5
						c0.2,0.2,0.4,0.3,0.7,0.3c0.3,0,0.5-0.1,0.7-0.3l13.8-13.8c0.2-0.2,0.3-0.4,0.3-0.7C120.5,90.7,120.4,90.5,120.2,90.3z"/>
				</g>
			</g>
		</g>
	</g>
	<g>
		<g>
			<g>
				<g>
					<g>
						<circle fill="#FFFFFF" cx="131.3" cy="45.1" r="3.7"/>
					</g>
					<g>
						<path fill="#FFFFFF" d="M131.3,48.9c-2.1,0-3.8-1.7-3.8-3.8c0-2.1,1.7-3.8,3.8-3.8c2.1,0,3.8,1.7,3.8,3.8
							S133.4,48.9,131.3,48.9z M131.3,41.5c-2,0-3.6,1.6-3.6,3.6c0,2,1.6,3.6,3.6,3.6c2,0,3.6-1.6,3.6-3.6S133.3,41.5,131.3,41.5z"
							/>
					</g>
				</g>
				<g>
					<g>
						<circle fill="#FFFFFF" cx="120.3" cy="45.1" r="3.7"/>
					</g>
					<g>
						<path fill="#FFFFFF" d="M120.3,48.9c-2.1,0-3.8-1.7-3.8-3.8c0-2.1,1.7-3.8,3.8-3.8c2.1,0,3.8,1.7,3.8,3.8
							S122.3,48.9,120.3,48.9z M120.3,41.5c-2,0-3.6,1.6-3.6,3.6c0,2,1.6,3.6,3.6,3.6c2,0,3.6-1.6,3.6-3.6S122.3,41.5,120.3,41.5z"
							/>
					</g>
				</g>
				<g>
					<g>
						<circle fill="#FFFFFF" cx="109.2" cy="45.1" r="3.7"/>
					</g>
					<g>
						<path fill="#FFFFFF" d="M109.2,48.9c-2.1,0-3.8-1.7-3.8-3.8c0-2.1,1.7-3.8,3.8-3.8s3.8,1.7,3.8,3.8S111.3,48.9,109.2,48.9z
							 M109.2,41.5c-2,0-3.6,1.6-3.6,3.6c0,2,1.6,3.6,3.6,3.6c2,0,3.6-1.6,3.6-3.6S111.2,41.5,109.2,41.5z"/>
					</g>
				</g>
				<g>
					<g>
						<path fill="#FFFFFF" d="M146.7,120.4v-80c0-5.6-4.6-10.2-10.2-10.2h-83c-5.6,0-10.2,4.6-10.2,10.2v80
							c0,5.6,4.6,10.2,10.2,10.2h83C142.1,130.6,146.7,126,146.7,120.4z M50.9,40.4c0-1.5,1.2-2.7,2.7-2.7h83c1.5,0,2.7,1.2,2.7,2.7
							v11.4H50.9V40.4z M50.9,120.4V59.3h88.3v61.1c0,1.5-1.2,2.7-2.7,2.7h-83C52.1,123.1,50.9,121.9,50.9,120.4z"/>
					</g>
					<g>
						<path fill="#FFFFFF" d="M136.5,130.6h-83c-5.7,0-10.2-4.6-10.2-10.2v-80c0-5.7,4.6-10.2,10.2-10.2h83
							c5.7,0,10.2,4.6,10.2,10.2v80C146.8,126,142.2,130.6,136.5,130.6z M53.6,30.3c-5.6,0-10.1,4.5-10.1,10.1v80
							c0,5.6,4.5,10.1,10.1,10.1h83c5.6,0,10.1-4.5,10.1-10.1v-80c0-5.6-4.5-10.1-10.1-10.1L53.6,30.3z M136.5,123.2h-83
							c-1.5,0-2.8-1.2-2.8-2.8V59.3h88.5v61.1C139.3,121.9,138.1,123.2,136.5,123.2z M51,59.4v61c0,1.4,1.2,2.6,2.6,2.6h83
							c1.4,0,2.6-1.2,2.6-2.6v-61H51z M139.3,51.9H50.8V40.4c0-1.5,1.2-2.8,2.8-2.8h83c1.5,0,2.8,1.2,2.8,2.8V51.9L139.3,51.9z
							 M51,51.8h88.1V40.4c0-1.4-1.2-2.6-2.6-2.6h-83c-1.4,0-2.6,1.2-2.6,2.6V51.8z"/>
					</g>
				</g>
			</g>
		</g>
	</g>
</g>
</svg>
